<svg id="Capa_1" data-name="Capa 1" xmlns="http://www.w3.org/2000/svg" viewBox="0 0 510 510"><defs><style>.cls-1{fill:#8ac0e8;}</style></defs><title>cart</title><g id="shopping-cart"><path class="cls-1" d="M153,408a51,51,0,1,0,51,51A51.15,51.15,0,0,0,153,408ZM0,0V51H51l91.8,193.8L107.1,306c-2.55,7.65-5.1,17.85-5.1,25.5a51.15,51.15,0,0,0,51,51H459v-51H163.2a5.48,5.48,0,0,1-5.1-5.1v-2.55L181,280.5h188.7c20.4,0,35.7-10.2,43.35-25.5L504.9,89.25c5.1-5.1,5.1-7.65,5.1-12.75C510,61.2,499.8,51,484.5,51H107.1L84.15,0ZM408,408a51,51,0,1,0,51,51A51.15,51.15,0,0,0,408,408Z" transform="translate(0 0)"/></g></svg>