<svg id="Capa_1" data-name="Capa 1" xmlns="http://www.w3.org/2000/svg" viewBox="0 0 48.35 48.35"><defs><style>.cls-1{fill:#999;}</style></defs><title>search-thongso</title><circle class="cls-1" cx="24.18" cy="24.18" r="4.17"/><path class="cls-1" d="M47.37,20,41.54,19a17.92,17.92,0,0,0-1.39-3.37l3.37-4.93a1.25,1.25,0,0,0-.14-1.53L39.22,5a1.25,1.25,0,0,0-1.53-.14L32.76,8.2a18,18,0,0,0-3.47-1.42L28.2,1A1.25,1.25,0,0,0,27,0H21.14A1.25,1.25,0,0,0,20,1l-1.1,5.85a18,18,0,0,0-3.33,1.39L10.66,4.9A1.25,1.25,0,0,0,9.13,5L5,9.2a1.25,1.25,0,0,0-.14,1.53l3.35,4.9A18.06,18.06,0,0,0,6.81,19L1,20a1.25,1.25,0,0,0-1,1.18v5.88a1.25,1.25,0,0,0,1,1.19L6.8,29.38a18,18,0,0,0,1.4,3.4L4.89,37.63A1.25,1.25,0,0,0,5,39.16l4.16,4.15a1.25,1.25,0,0,0,1.53.15l4.84-3.31a18.09,18.09,0,0,0,3.3,1.38L20,47.37a1.25,1.25,0,0,0,1.18,1H27a1.25,1.25,0,0,0,1.18-1l1.09-5.79a18.2,18.2,0,0,0,3.44-1.4l4.9,3.35a1.25,1.25,0,0,0,1.53-.15l4.15-4.15a1.25,1.25,0,0,0,.15-1.53l-3.33-4.87a18.08,18.08,0,0,0,1.42-3.44l5.82-1.09a1.25,1.25,0,0,0,1-1.19V21.23A1.25,1.25,0,0,0,47.37,20ZM24.18,34.26A10.08,10.08,0,1,1,34.26,24.18,10.08,10.08,0,0,1,24.18,34.26Z" transform="translate(0 0)"/></svg>