<svg id="Capa_1" data-name="Capa 1" xmlns="http://www.w3.org/2000/svg" viewBox="0 0 512 287.1"><defs><style>.cls-1{fill:#245890;}</style></defs><title>delivery</title><path class="cls-1" d="M189.71,314a42.77,42.77,0,1,0,42.73,42.8A42.75,42.75,0,0,0,189.71,314Zm0,64.17a21.37,21.37,0,1,1,21.37-21.37A21.39,21.39,0,0,1,189.71,378.18ZM512,282.4V328a20.61,20.61,0,0,1-20.61,20.61H469.34a56.55,56.55,0,0,0-111.91,0H245.65a56.51,56.51,0,0,0-111.84,0H106.18A20.61,20.61,0,0,1,85.58,328V282.4H512ZM413.4,314a42.77,42.77,0,1,0,42.73,42.8A42.81,42.81,0,0,0,413.4,314Zm0,64.17a21.37,21.37,0,1,1,21.37-21.37A21.39,21.39,0,0,1,413.4,378.18Zm90.48-141.73-81-80.11a27.53,27.53,0,0,0-19.31-8H362.7V133.06a20.58,20.58,0,0,0-20.61-20.61H106.17a20.63,20.63,0,0,0-20.61,20.61v3.23L1.92,145.93l148.2,19.3L0,180.14l149.6,21.27L0,214.38l85.57,16.14V271H512V256A27.61,27.61,0,0,0,503.88,236.45Zm-35.31,2.68H390.18A3.23,3.23,0,0,1,387,235.9V175.38a3.23,3.23,0,0,1,3.23-3.23h14.91a3.48,3.48,0,0,1,2.27.89l63.41,60.53A3.22,3.22,0,0,1,468.57,239.13Z" transform="translate(0 -112.45)"/></svg>