<svg id="Layer_1" data-name="Layer 1" xmlns="http://www.w3.org/2000/svg" viewBox="0 0 174.41 39.2"><defs><style>.cls-1,.cls-4{fill:#fff;}.cls-2{fill:#0872b9;}.cls-2,.cls-3,.cls-4,.cls-5,.cls-6{fill-rule:evenodd;}.cls-3{fill:#ea2227;}.cls-5{fill:#4377bb;}.cls-6{fill:#98d7e3;}</style></defs><title>dluq</title><rect class="cls-1" y="10.79" width="82.48" height="23.47"/><path class="cls-2" d="M5.52,2.45H82.25a2.88,2.88,0,0,1,2.88,2.88V33.45H2.64V5.33A2.88,2.88,0,0,1,5.52,2.45Z" transform="translate(-2.63 -2.3)"/><path class="cls-3" d="M85.13,35.38H2.64v3.1a2.88,2.88,0,0,0,2.88,2.88H82.25a2.88,2.88,0,0,0,2.88-2.88v-3.1Z" transform="translate(-2.63 -2.3)"/><path class="cls-4" d="M41.18,19.78l.09-.08c.08,0,.08,0,.08.08L47,25.45a.45.45,0,0,0,.39.24h7.1a.68.68,0,0,0,.62-.64V20.18a.68.68,0,0,0-.62-.64H49.36a.63.63,0,0,1-.39-.16l-3.73-3.84a.07.07,0,0,1-.08-.08.07.07,0,0,0,.08-.08L47,13.62a1.16,1.16,0,0,1,.47-.16h5.06a.68.68,0,0,0,.63-.64V10a.58.58,0,0,0-.63-.63h-5a.58.58,0,0,0-.39.16l-5.77,5.91h-.08s-.09,0-.09-.08V10c0-.4-.23-.63-.54-.63H34.87c-.31,0-.54.23-.54.63v4.88a.54.54,0,0,0,.54.55.42.42,0,0,1,.39.4v3.27a.37.37,0,0,1-.39.4.61.61,0,0,0-.54.64V25a.61.61,0,0,0,.54.64h5.77a.61.61,0,0,0,.54-.64V19.78Z" transform="translate(-2.63 -2.3)"/><path class="cls-4" d="M24,13.47a.62.62,0,0,1-.62-.64v-1a.42.42,0,0,0-.39-.4H19.84a.42.42,0,0,0-.39.4v3.27a.37.37,0,0,0,.39.4H30.75a.62.62,0,0,1,.54.64V25a.62.62,0,0,1-.54.64H12.12A.68.68,0,0,1,11.5,25V20.18a.68.68,0,0,1,.63-.64h4.75a.61.61,0,0,1,.54.64v3a.44.44,0,0,0,.48.4H25a.37.37,0,0,0,.39-.4V17.94a.38.38,0,0,0-.39-.4H14.07a.68.68,0,0,1-.63-.63L13.52,10a.56.56,0,0,1,.55-.63H28.71a.62.62,0,0,1,.63.63v2.79a.68.68,0,0,1-.63.64Z" transform="translate(-2.63 -2.3)"/><path class="cls-4" d="M71.5,13.47a.61.61,0,0,1-.54-.64v-1a.5.5,0,0,0-.39-.4H64.41a.42.42,0,0,0-.39.4v3.27a.37.37,0,0,0,.39.4h2.19a.37.37,0,0,0,.39-.4.55.55,0,0,1,.62-.55h4.75a.54.54,0,0,1,.55.55v2.87a.55.55,0,0,1-.55.57H67.6a.56.56,0,0,1-.62-.57.38.38,0,0,0-.39-.4H64.41a.37.37,0,0,0-.39.4v1.2a.37.37,0,0,0,.39.4.68.68,0,0,1,.63.64V25a.68.68,0,0,1-.63.64H58.64A.61.61,0,0,1,58.1,25V20.18a.61.61,0,0,1,.54-.64.37.37,0,0,0,.39-.4V15.86a.42.42,0,0,0-.39-.4.54.54,0,0,1-.54-.55V10c0-.4.23-.63.54-.63H78.28a.62.62,0,0,1,.62.63v2.79a.68.68,0,0,1-.62.64Z" transform="translate(-2.63 -2.3)"/><path class="cls-5" d="M173.51,2.3H98.08a3.54,3.54,0,0,0-3.54,3.54V38a3.54,3.54,0,0,0,3.54,3.54h75.43A3.54,3.54,0,0,0,177,38V5.84a3.54,3.54,0,0,0-3.54-3.54Z" transform="translate(-2.63 -2.3)"/><path class="cls-6" d="M173.51,3.82a2,2,0,0,1,2,2v3h-44A32,32,0,0,0,103.47,40H98.08a2,2,0,0,1-2-2V5.84a2,2,0,0,1,2-2Z" transform="translate(-2.63 -2.3)"/><path class="cls-1" d="M127.71,23.81a.5.5,0,0,1-.13.22.65.65,0,0,1-.2.14.61.61,0,0,1-.24.05.59.59,0,0,1-.34-.1.55.55,0,0,1-.21-.35l-.1-.45-.11-.44h-2l-.11.44-.1.45a.57.57,0,0,1-.21.34.54.54,0,0,1-.32.11.61.61,0,0,1-.24-.05.6.6,0,0,1-.2-.14.52.52,0,0,1-.12-.22.56.56,0,0,1,0-.3q.3-1.32.69-2.53t.87-2.4a1,1,0,0,1,.35-.49.77.77,0,0,1,.39-.11.82.82,0,0,1,.4.11.92.92,0,0,1,.35.49q.48,1.19.87,2.4t.69,2.53A.62.62,0,0,1,127.71,23.81Zm-2.32-4q-.19.52-.36,1t-.34,1h1.41Q125.78,20.8,125.39,19.78Z" transform="translate(-2.63 -2.3)"/><path class="cls-1" d="M132.58,24.08a.71.71,0,0,1-.4.11.86.86,0,0,1-.27,0,.9.9,0,0,1-.47-.38,1.55,1.55,0,0,1-.52.31,2,2,0,0,1-.7.11,1.65,1.65,0,0,1-.64-.11,1.08,1.08,0,0,1-.43-.32,1.36,1.36,0,0,1-.25-.49,2.35,2.35,0,0,1-.08-.63V20.33a.55.55,0,0,1,.16-.4.53.53,0,0,1,.4-.17.57.57,0,0,1,.57.57v2.17a1.29,1.29,0,0,0,0,.26.51.51,0,0,0,.09.2.4.4,0,0,0,.17.13.8.8,0,0,0,.3,0,.87.87,0,0,0,.41-.09.77.77,0,0,0,.28-.25V20.33a.57.57,0,0,1,.57-.57.53.53,0,0,1,.4.17.55.55,0,0,1,.16.4v2.61a.45.45,0,0,0,.07.3l.17.17a.4.4,0,0,1,.16.33A.39.39,0,0,1,132.58,24.08Z" transform="translate(-2.63 -2.3)"/><path class="cls-1" d="M136.38,24a.47.47,0,0,1-.35.15h-.32A1.89,1.89,0,0,1,135,24a1.24,1.24,0,0,1-.5-.39,1.65,1.65,0,0,1-.28-.61,3.34,3.34,0,0,1-.09-.79V20.73H134a.43.43,0,0,1-.32-.14.46.46,0,0,1-.13-.33.46.46,0,0,1,.46-.46h.13v-.57a.57.57,0,0,1,.57-.57.53.53,0,0,1,.4.17.55.55,0,0,1,.16.4v.57h.64a.46.46,0,0,1,.46.46.46.46,0,0,1-.13.33.44.44,0,0,1-.33.14h-.64v1.46a1.51,1.51,0,0,0,.13.73.57.57,0,0,0,.53.22H136a.48.48,0,0,1,.49.49A.49.49,0,0,1,136.38,24Z" transform="translate(-2.63 -2.3)"/><path class="cls-1" d="M140.93,24a.55.55,0,0,1-.4.16.55.55,0,0,1-.56-.56V21.47a1.45,1.45,0,0,0,0-.25.5.5,0,0,0-.08-.21.44.44,0,0,0-.18-.14.72.72,0,0,0-.3-.05.87.87,0,0,0-.41.09.85.85,0,0,0-.29.25v2.47a.55.55,0,0,1-.56.56.55.55,0,0,1-.4-.16.54.54,0,0,1-.16-.4v-5a.54.54,0,0,1,.16-.4.55.55,0,0,1,.4-.16.55.55,0,0,1,.56.56V20a1.47,1.47,0,0,1,.44-.2,2.08,2.08,0,0,1,.57-.07,1.67,1.67,0,0,1,.66.12,1.1,1.1,0,0,1,.43.32,1.26,1.26,0,0,1,.23.5,2.72,2.72,0,0,1,.07.64v2.3A.54.54,0,0,1,140.93,24Z" transform="translate(-2.63 -2.3)"/><path class="cls-1" d="M146,23.11a1.52,1.52,0,0,1-.33.56,1.56,1.56,0,0,1-.56.38,2.35,2.35,0,0,1-1.61,0,1.56,1.56,0,0,1-.56-.38,1.52,1.52,0,0,1-.33-.56,2.21,2.21,0,0,1-.1-.69v-.88a2.22,2.22,0,0,1,.1-.68,1.51,1.51,0,0,1,.33-.57,1.56,1.56,0,0,1,.56-.38,2.35,2.35,0,0,1,1.61,0,1.56,1.56,0,0,1,.56.38,1.52,1.52,0,0,1,.33.57,2.23,2.23,0,0,1,.1.68v.88A2.21,2.21,0,0,1,146,23.11Zm-1-1.56a.89.89,0,0,0-.16-.57.75.75,0,0,0-1,0,.87.87,0,0,0-.16.57v.87a.87.87,0,0,0,.16.57.75.75,0,0,0,1,0,.89.89,0,0,0,.16-.57Z" transform="translate(-2.63 -2.3)"/><path class="cls-1" d="M150.18,20.8a.48.48,0,0,1-.4.07l-.13,0h-.23a.91.91,0,0,0-.45.11.58.58,0,0,0-.27.38v2.32a.55.55,0,0,1-.56.56.55.55,0,0,1-.4-.16.54.54,0,0,1-.16-.4V21.08a.45.45,0,0,0-.08-.3l-.17-.18a.38.38,0,0,1-.11-.13.41.41,0,0,1,0-.2.4.4,0,0,1,.15-.35.69.69,0,0,1,.41-.11h.08l.09,0a1,1,0,0,1,.38.18.91.91,0,0,1,.23.28,1.29,1.29,0,0,1,.3-.28,1.54,1.54,0,0,1,.32-.16,1.4,1.4,0,0,1,.3-.07l.24,0a1.2,1.2,0,0,1,.3,0,.77.77,0,0,1,.22.09.45.45,0,0,1,.2.27.59.59,0,0,1,0,.33A.58.58,0,0,1,150.18,20.8Z" transform="translate(-2.63 -2.3)"/><path class="cls-1" d="M152.43,19a.61.61,0,0,1-.44.18.62.62,0,0,1-.45-.18.63.63,0,0,1,0-.89.62.62,0,0,1,.45-.18.61.61,0,0,1,.44.18.63.63,0,0,1,0,.89Zm0,5a.54.54,0,0,1-.4.16.55.55,0,0,1-.4-.16.54.54,0,0,1-.16-.4V20.33a.55.55,0,0,1,.16-.4.54.54,0,0,1,.4-.17.53.53,0,0,1,.4.17.55.55,0,0,1,.16.4v3.31A.54.54,0,0,1,152.39,24Z" transform="translate(-2.63 -2.3)"/><path class="cls-1" d="M156.9,20.76l-1.74,2.41h1.42a.48.48,0,0,1,.35.14.46.46,0,0,1,.15.34.47.47,0,0,1-.15.35.48.48,0,0,1-.35.14h-2.38a.42.42,0,0,1-.16,0,.59.59,0,0,1-.16-.1.53.53,0,0,1-.12-.17.52.52,0,0,1-.05-.23.53.53,0,0,1,.11-.33l1.79-2.48H154.3a.48.48,0,0,1-.48-.48A.48.48,0,0,1,154,20a.47.47,0,0,1,.34-.14h2.24a.64.64,0,0,1,.35.11.41.41,0,0,1,.18.37A.83.83,0,0,1,156.9,20.76Z" transform="translate(-2.63 -2.3)"/><path class="cls-1" d="M161.45,22.21a.36.36,0,0,1-.27.12h-2v.16a.9.9,0,0,0,.17.58.63.63,0,0,0,.52.21,2.39,2.39,0,0,0,.51,0,2.46,2.46,0,0,0,.42-.14.38.38,0,0,1,.33,0,.41.41,0,0,1,.21.27.47.47,0,0,1,0,.34.41.41,0,0,1-.22.21,2.72,2.72,0,0,1-.68.21,3.88,3.88,0,0,1-.63.05A2,2,0,0,1,159,24a1.48,1.48,0,0,1-.54-.4,1.54,1.54,0,0,1-.3-.58,2.58,2.58,0,0,1-.09-.7v-.77a2.33,2.33,0,0,1,.1-.7,1.61,1.61,0,0,1,.32-.58,1.57,1.57,0,0,1,.55-.4,1.89,1.89,0,0,1,.79-.15,2,2,0,0,1,.81.15,1.41,1.41,0,0,1,.54.4,1.62,1.62,0,0,1,.3.58,2.45,2.45,0,0,1,.1.69v.36A.39.39,0,0,1,161.45,22.21Zm-1.12-1.38a.58.58,0,0,0-.48-.19.61.61,0,0,0-.5.19.83.83,0,0,0-.16.55v.11h1.29v-.11A.88.88,0,0,0,160.33,20.83Z" transform="translate(-2.63 -2.3)"/><path class="cls-1" d="M166.51,24.08a.69.69,0,0,1-.4.11.86.86,0,0,1-.27,0,.83.83,0,0,1-.25-.14l-.16-.15a1.57,1.57,0,0,1-.49.25,1.88,1.88,0,0,1-.56.09,1.52,1.52,0,0,1-1.22-.45,2,2,0,0,1-.39-1.33v-.67a3.92,3.92,0,0,1,.08-.82,1.68,1.68,0,0,1,.26-.62,1.18,1.18,0,0,1,.47-.39,1.67,1.67,0,0,1,.72-.14,1.63,1.63,0,0,1,.47.07,1.54,1.54,0,0,1,.41.19V18.67a.53.53,0,0,1,.17-.4.57.57,0,0,1,.8,0,.53.53,0,0,1,.17.4v4.27a.55.55,0,0,0,.06.3.87.87,0,0,0,.16.17.37.37,0,0,1,.11.13.44.44,0,0,1,0,.2A.39.39,0,0,1,166.51,24.08ZM165.18,21a1.12,1.12,0,0,0-.3-.19.81.81,0,0,0-.32-.07.59.59,0,0,0-.52.21,1,1,0,0,0-.15.6v1a.87.87,0,0,0,.15.56.64.64,0,0,0,.52.19,1,1,0,0,0,.61-.22Z" transform="translate(-2.63 -2.3)"/><path class="cls-1" d="M127.24,32.63a1.93,1.93,0,0,1-.3.73,1.74,1.74,0,0,1-.65.56,2.4,2.4,0,0,1-1.11.22h-1.58a.54.54,0,0,1-.4-.17.56.56,0,0,1-.16-.41V28.64a.56.56,0,0,1,.16-.41.54.54,0,0,1,.4-.17h1.58a2.36,2.36,0,0,1,1.11.22,1.78,1.78,0,0,1,.65.56,1.93,1.93,0,0,1,.3.73,4,4,0,0,1,.08.74v1.57A4,4,0,0,1,127.24,32.63Zm-1.07-2.29a2.35,2.35,0,0,0,0-.48.86.86,0,0,0-.17-.37.8.8,0,0,0-.33-.24,1.45,1.45,0,0,0-.53-.08h-.92v3.9h.92a1.45,1.45,0,0,0,.53-.08.8.8,0,0,0,.33-.24.86.86,0,0,0,.17-.37,2.35,2.35,0,0,0,0-.48Z" transform="translate(-2.63 -2.3)"/><path class="cls-1" d="M129.83,29a.61.61,0,0,1-.44.18.62.62,0,0,1-.45-.18.63.63,0,0,1,0-.89.62.62,0,0,1,.45-.18.61.61,0,0,1,.44.18.63.63,0,0,1,0,.89Zm0,5a.54.54,0,0,1-.4.16A.55.55,0,0,1,129,34a.54.54,0,0,1-.16-.4V30.33a.55.55,0,0,1,.16-.4.54.54,0,0,1,.4-.17.53.53,0,0,1,.4.17.55.55,0,0,1,.16.4v3.31A.54.54,0,0,1,129.78,34Z" transform="translate(-2.63 -2.3)"/><path class="cls-1" d="M134.31,33.45a1.31,1.31,0,0,1-.39.43,1.64,1.64,0,0,1-.56.24,2.87,2.87,0,0,1-.65.07,4.08,4.08,0,0,1-.71,0,3.36,3.36,0,0,1-.49-.12.41.41,0,0,1-.25-.25.54.54,0,0,1,0-.35.44.44,0,0,1,.25-.29.46.46,0,0,1,.36,0l.37.11a2.25,2.25,0,0,0,.51,0,1,1,0,0,0,.5-.11.34.34,0,0,0,.18-.3.3.3,0,0,0-.1-.25.76.76,0,0,0-.27-.14l-.37-.08-.42-.09-.37-.12a1,1,0,0,1-.32-.21,1,1,0,0,1-.22-.35,1.4,1.4,0,0,1-.08-.52,1.29,1.29,0,0,1,.13-.58,1.23,1.23,0,0,1,.34-.42,1.53,1.53,0,0,1,.5-.26,2,2,0,0,1,.6-.09,3.24,3.24,0,0,1,1.17.18.48.48,0,0,1,.28.24.43.43,0,0,1,0,.35.46.46,0,0,1-.22.27.45.45,0,0,1-.36,0l-.42-.12a1.94,1.94,0,0,0-.4,0,.71.71,0,0,0-.43.1.31.31,0,0,0-.13.25.29.29,0,0,0,.08.22.62.62,0,0,0,.22.13l.33.08.39.08.41.12a1.16,1.16,0,0,1,.37.22,1,1,0,0,1,.26.36,1.37,1.37,0,0,1,.1.56A1.24,1.24,0,0,1,134.31,33.45Z" transform="translate(-2.63 -2.3)"/><path class="cls-1" d="M138.16,34a.47.47,0,0,1-.35.15h-.32a1.89,1.89,0,0,1-.76-.14,1.24,1.24,0,0,1-.5-.39,1.66,1.66,0,0,1-.28-.61,3.35,3.35,0,0,1-.09-.79V30.73h-.13a.43.43,0,0,1-.32-.14.46.46,0,0,1-.13-.33.46.46,0,0,1,.46-.46h.13v-.57a.57.57,0,0,1,.57-.57.53.53,0,0,1,.4.17.55.55,0,0,1,.16.4v.57h.64a.46.46,0,0,1,.46.46.46.46,0,0,1-.13.33.44.44,0,0,1-.33.14H137v1.46a1.5,1.5,0,0,0,.13.73.57.57,0,0,0,.53.22h.16a.48.48,0,0,1,.49.49A.49.49,0,0,1,138.16,34Z" transform="translate(-2.63 -2.3)"/><path class="cls-1" d="M142,30.8a.48.48,0,0,1-.4.07l-.13,0h-.23a.91.91,0,0,0-.45.11.58.58,0,0,0-.27.38v2.32a.55.55,0,0,1-.56.56.55.55,0,0,1-.4-.16.54.54,0,0,1-.16-.4V31.08a.45.45,0,0,0-.08-.3l-.17-.18a.38.38,0,0,1-.11-.13.41.41,0,0,1,0-.2.4.4,0,0,1,.15-.35.69.69,0,0,1,.41-.11h.08l.09,0a1,1,0,0,1,.38.18.91.91,0,0,1,.23.28,1.29,1.29,0,0,1,.3-.28,1.54,1.54,0,0,1,.32-.16,1.4,1.4,0,0,1,.3-.07l.24,0a1.2,1.2,0,0,1,.3,0,.77.77,0,0,1,.22.09.45.45,0,0,1,.2.27.59.59,0,0,1,0,.33A.58.58,0,0,1,142,30.8Z" transform="translate(-2.63 -2.3)"/><path class="cls-1" d="M144.3,29a.61.61,0,0,1-.44.18.62.62,0,0,1-.45-.18.63.63,0,0,1,0-.89.62.62,0,0,1,.45-.18.61.61,0,0,1,.44.18.63.63,0,0,1,0,.89Zm0,5a.54.54,0,0,1-.4.16.55.55,0,0,1-.4-.16.54.54,0,0,1-.16-.4V30.33a.55.55,0,0,1,.16-.4.54.54,0,0,1,.4-.17.53.53,0,0,1,.4.17.55.55,0,0,1,.16.4v3.31A.54.54,0,0,1,144.25,34Z" transform="translate(-2.63 -2.3)"/><path class="cls-1" d="M149.16,33.73a1.49,1.49,0,0,1-1.21.47,1.89,1.89,0,0,1-.57-.09,1.69,1.69,0,0,1-.49-.24l-.07.07-.08.07a.83.83,0,0,1-.25.14.86.86,0,0,1-.27,0,.69.69,0,0,1-.4-.11.39.39,0,0,1-.16-.35.44.44,0,0,1,0-.2.37.37,0,0,1,.11-.13.88.88,0,0,0,.16-.17.55.55,0,0,0,.06-.3V28.67a.53.53,0,0,1,.17-.4.55.55,0,0,1,.4-.16.55.55,0,0,1,.56.56v1.42a1.57,1.57,0,0,1,.41-.23,1.42,1.42,0,0,1,.52-.1,1.71,1.71,0,0,1,.71.13,1.1,1.1,0,0,1,.45.37,1.54,1.54,0,0,1,.24.6,4.49,4.49,0,0,1,.07.82v.71A2,2,0,0,1,149.16,33.73Zm-.73-2.22a1,1,0,0,0-.14-.59.57.57,0,0,0-.5-.2.83.83,0,0,0-.34.08,1,1,0,0,0-.3.21v2a1.13,1.13,0,0,0,.29.16.91.91,0,0,0,.32.06.63.63,0,0,0,.52-.19.87.87,0,0,0,.16-.57Z" transform="translate(-2.63 -2.3)"/><path class="cls-1" d="M154.74,34.08a.71.71,0,0,1-.4.11.86.86,0,0,1-.27,0,.9.9,0,0,1-.47-.38,1.55,1.55,0,0,1-.52.31,2,2,0,0,1-.7.11,1.65,1.65,0,0,1-.64-.11,1.08,1.08,0,0,1-.43-.32,1.36,1.36,0,0,1-.25-.49,2.35,2.35,0,0,1-.08-.63V30.33a.55.55,0,0,1,.16-.4.53.53,0,0,1,.4-.17.57.57,0,0,1,.57.57v2.17a1.29,1.29,0,0,0,0,.26.51.51,0,0,0,.09.2.4.4,0,0,0,.18.13.79.79,0,0,0,.3,0,.87.87,0,0,0,.41-.09.77.77,0,0,0,.28-.25V30.33a.57.57,0,0,1,.57-.57.53.53,0,0,1,.4.17.55.55,0,0,1,.16.4v2.61a.45.45,0,0,0,.08.3l.18.17a.4.4,0,0,1,.16.33A.39.39,0,0,1,154.74,34.08Z" transform="translate(-2.63 -2.3)"/><path class="cls-1" d="M158.54,34a.47.47,0,0,1-.35.15h-.32a1.89,1.89,0,0,1-.76-.14,1.24,1.24,0,0,1-.5-.39,1.65,1.65,0,0,1-.28-.61,3.34,3.34,0,0,1-.09-.79V30.73h-.13a.43.43,0,0,1-.33-.14.46.46,0,0,1-.13-.33.46.46,0,0,1,.46-.46h.13v-.57a.57.57,0,0,1,.57-.57.53.53,0,0,1,.4.17.55.55,0,0,1,.16.4v.57H158a.46.46,0,0,1,.46.46.46.46,0,0,1-.13.33.44.44,0,0,1-.33.14h-.64v1.46a1.5,1.5,0,0,0,.13.73.57.57,0,0,0,.53.22h.16a.48.48,0,0,1,.49.49A.49.49,0,0,1,158.54,34Z" transform="translate(-2.63 -2.3)"/><path class="cls-1" d="M163.07,33.1a1.52,1.52,0,0,1-.33.56,1.56,1.56,0,0,1-.56.38,2.35,2.35,0,0,1-1.61,0,1.56,1.56,0,0,1-.56-.38,1.52,1.52,0,0,1-.33-.56,2.21,2.21,0,0,1-.1-.69v-.88a2.22,2.22,0,0,1,.1-.68,1.51,1.51,0,0,1,.33-.57,1.56,1.56,0,0,1,.56-.38,2.35,2.35,0,0,1,1.61,0,1.56,1.56,0,0,1,.56.38,1.52,1.52,0,0,1,.33.57,2.23,2.23,0,0,1,.1.68v.88A2.21,2.21,0,0,1,163.07,33.1Zm-1-1.56a.89.89,0,0,0-.16-.57.75.75,0,0,0-1,0,.87.87,0,0,0-.16.57v.87a.87.87,0,0,0,.16.57.75.75,0,0,0,1,0,.89.89,0,0,0,.16-.57Z" transform="translate(-2.63 -2.3)"/><path class="cls-1" d="M167.29,30.8a.48.48,0,0,1-.4.07l-.13,0h-.23a.91.91,0,0,0-.45.11.58.58,0,0,0-.27.38v2.32a.55.55,0,0,1-.56.56.55.55,0,0,1-.4-.16.54.54,0,0,1-.16-.4V31.08a.45.45,0,0,0-.08-.3l-.17-.18a.38.38,0,0,1-.11-.13.41.41,0,0,1,0-.2.4.4,0,0,1,.15-.35.69.69,0,0,1,.41-.11h.08l.09,0a1,1,0,0,1,.38.18.91.91,0,0,1,.23.28,1.29,1.29,0,0,1,.3-.28,1.54,1.54,0,0,1,.32-.16,1.4,1.4,0,0,1,.3-.07l.24,0a1.2,1.2,0,0,1,.3,0,.77.77,0,0,1,.22.09.45.45,0,0,1,.2.27.59.59,0,0,1,0,.33A.58.58,0,0,1,167.29,30.8Z" transform="translate(-2.63 -2.3)"/></svg>