<?xml version="1.0" encoding="utf-8"?>
<!-- Generator: Adobe Illustrator 21.1.0, SVG Export Plug-In . SVG Version: 6.00 Build 0)  -->
<svg version="1.1" id="Layer_1" xmlns="http://www.w3.org/2000/svg" xmlns:xlink="http://www.w3.org/1999/xlink" x="0px" y="0px"
	 viewBox="0 0 340 44" style="enable-background:new 0 0 340 44;" xml:space="preserve">
<style type="text/css">
	.st0{fill:#FFFFFF;}
	.st1{fill:#0A73B7;}
	.st2{fill:#E7282B;}
	.st3{fill:#4377BB;}
	.st4{fill:#96D5E0;}
	.st5{fill:#FFFFFF;stroke:#4577BB;stroke-width:1.1633;stroke-miterlimit:10;}
	.st6{opacity:0.3;fill:#96D5E0;enable-background:new    ;}
	.st7{fill:#1B75BB;}
</style>
<title>dluq-dm</title>
<rect x="1.6" y="13.7" class="st0" width="80.5" height="22.9"/>
<path class="st1" d="M4.4,3.3h74.9c1.5,0,2.8,1.3,2.8,2.8v27.5H1.6V6.1C1.6,4.5,2.9,3.3,4.4,3.3z"/>
<path class="st2" d="M82.1,35.4H1.6v3c0,1.6,1.3,2.8,2.8,2.8l0,0h74.9c1.6,0,2.8-1.3,2.8-2.8C82.1,38.4,82.1,35.4,82.1,35.4z"/>
<path class="st0" d="M39.2,20.2L39.2,20.2c0.2-0.1,0.2-0.1,0.2,0l5.5,5.5c0.1,0.1,0.2,0.2,0.4,0.2h6.9c0.3,0,0.6-0.3,0.6-0.6v-4.8
	c0-0.3-0.3-0.6-0.6-0.6h-5c-0.1,0-0.3-0.1-0.4-0.2L43.2,16c0,0-0.1,0-0.1-0.1l0,0c0,0,0.1,0,0.1-0.1l0,0l1.7-1.7
	c0.1-0.1,0.3-0.1,0.5-0.2h4.9c0.3,0,0.6-0.3,0.6-0.6v-2.7c0-0.3-0.2-0.6-0.5-0.6h-0.1h-4.9c-0.1,0-0.3,0.1-0.4,0.2L39.4,16h-0.1
	c0,0-0.1,0-0.1-0.1v-5.2c0-0.4-0.2-0.6-0.5-0.6h-5.6c-0.3,0-0.5,0.2-0.5,0.6v4.8c0,0.3,0.2,0.5,0.5,0.5l0,0c0.2,0,0.4,0.2,0.4,0.4
	v3.2c0,0.2-0.1,0.4-0.3,0.4c0,0,0,0-0.1,0c-0.3,0-0.5,0.3-0.5,0.6v4.8c0,0.3,0.2,0.6,0.5,0.6h5.6c0.3,0,0.5-0.3,0.5-0.6L39.2,20.2z"
	/>
<path class="st0" d="M22.5,14c-0.3,0-0.6-0.3-0.6-0.6l0,0v-1c0-0.2-0.2-0.4-0.4-0.4h-3.1c-0.2,0-0.4,0.2-0.4,0.4v3.2
	c0,0.2,0.1,0.4,0.3,0.4c0,0,0,0,0.1,0H29c0.3,0,0.5,0.3,0.5,0.6v8.7c0,0.3-0.2,0.6-0.5,0.6H10.9c-0.3,0-0.6-0.3-0.6-0.6v-4.8
	c0-0.3,0.3-0.6,0.6-0.6h4.6c0.3,0,0.5,0.3,0.5,0.6v2.9c0,0.2,0.2,0.4,0.5,0.4l0,0h6.9c0.2,0,0.4-0.1,0.4-0.3c0,0,0,0,0-0.1v-5.1
	c0-0.2-0.1-0.4-0.4-0.4l0,0H12.8c-0.3,0-0.6-0.3-0.6-0.6l0.1-6.7c0-0.3,0.2-0.6,0.5-0.6c0,0,0,0,0.1,0h14.3c0.3,0,0.6,0.3,0.6,0.6
	l0,0v2.7c0,0.3-0.3,0.6-0.6,0.6L22.5,14z"/>
<path class="st0" d="M68.8,14c-0.3,0-0.5-0.3-0.5-0.6v-1c0-0.2-0.2-0.3-0.4-0.4h-6c-0.2,0-0.4,0.2-0.4,0.4v3.2
	c0,0.2,0.1,0.4,0.3,0.4c0,0,0,0,0.1,0H64c0.2,0,0.4-0.1,0.4-0.3c0,0,0,0,0-0.1c0-0.3,0.2-0.5,0.5-0.5c0,0,0,0,0.1,0h4.6
	c0.3,0,0.5,0.2,0.5,0.5l0,0v2.8c0,0.3-0.2,0.5-0.5,0.6l0,0H65c-0.3,0-0.6-0.2-0.6-0.5c0,0,0,0,0-0.1c0-0.2-0.1-0.4-0.4-0.4l0,0h-2.1
	c-0.2,0-0.4,0.1-0.4,0.3c0,0,0,0,0,0.1v1.2c0,0.2,0.1,0.4,0.3,0.4c0,0,0,0,0.1,0c0.3,0,0.6,0.3,0.6,0.6v4.8c0,0.3-0.3,0.6-0.6,0.6
	h-5.6c-0.3,0-0.5-0.3-0.5-0.6v-4.8c0-0.3,0.2-0.6,0.5-0.6c0.2,0,0.4-0.1,0.4-0.3c0,0,0,0,0-0.1v-3.2c0-0.2-0.2-0.4-0.4-0.4
	c-0.3,0-0.5-0.2-0.5-0.5l0,0v-4.8c0-0.4,0.2-0.6,0.5-0.6h19.2c0.3,0,0.6,0.3,0.6,0.6l0,0v2.7c0,0.3-0.3,0.6-0.6,0.6L68.8,14z"/>
<path class="st3" d="M168.4,3.1H94.8c-1.9,0-3.5,1.5-3.5,3.5l0,0V38c0,1.9,1.5,3.5,3.5,3.5l0,0h73.6c1.9,0,3.5-1.5,3.5-3.5V6.6
	C171.9,4.7,170.4,3.1,168.4,3.1L168.4,3.1z"/>
<path class="st4" d="M168.4,4.6c1.1,0,2,0.9,2,2v2.9h-43C112,11.4,100.3,24.3,100,39.9h-5.2c-1.1,0-2-0.9-2-2V6.6c0-1.1,0.9-2,2-2
	H168.4z"/>
<path class="st0" d="M123.7,24.1c0,0.1-0.1,0.2-0.1,0.2c-0.1,0.1-0.1,0.1-0.2,0.1s-0.2,0-0.2,0c-0.1,0-0.2,0-0.3-0.1
	c-0.1-0.1-0.2-0.2-0.2-0.3l-0.1-0.4l-0.1-0.4h-2l-0.1,0.4l-0.1,0.4c0,0.1-0.1,0.2-0.2,0.3c-0.1,0.1-0.2,0.1-0.3,0.1
	c-0.1,0-0.2,0-0.2,0c-0.1,0-0.1-0.1-0.2-0.1c-0.1-0.1-0.1-0.1-0.1-0.2s0-0.2,0-0.3c0.2-0.9,0.4-1.7,0.7-2.5c0.3-0.8,0.5-1.6,0.8-2.3
	c0.1-0.2,0.2-0.4,0.3-0.5c0.1-0.1,0.2-0.1,0.4-0.1c0.1,0,0.3,0,0.4,0.1c0.2,0.1,0.3,0.3,0.3,0.5c0.3,0.8,0.6,1.6,0.8,2.3
	c0.3,0.8,0.5,1.6,0.7,2.5C123.7,23.9,123.7,24,123.7,24.1z M121.4,20.2c-0.1,0.3-0.2,0.7-0.4,1c-0.1,0.3-0.2,0.6-0.3,1h1.4
	C121.9,21.5,121.7,20.9,121.4,20.2L121.4,20.2z"/>
<path class="st0" d="M128.5,24.4c-0.1,0.1-0.3,0.1-0.4,0.1c-0.1,0-0.2,0-0.3,0c-0.2-0.1-0.4-0.2-0.5-0.4c-0.1,0.1-0.3,0.2-0.5,0.3
	c-0.2,0.1-0.5,0.1-0.7,0.1s-0.4,0-0.6-0.1s-0.3-0.2-0.4-0.4c-0.1-0.1-0.2-0.3-0.2-0.5c-0.1-0.2-0.1-0.4-0.1-0.6v-2.2
	c0-0.1,0.1-0.3,0.2-0.4s0.2-0.2,0.4-0.2c0.3,0,0.6,0.2,0.6,0.6l0,0v2.1c0,0.1,0,0.2,0,0.3c0,0.1,0,0.1,0.1,0.2
	c0,0.1,0.1,0.1,0.2,0.1s0.2,0,0.3,0c0.1,0,0.3,0,0.4-0.1s0.2-0.1,0.3-0.2v-2.4c0-0.3,0.2-0.6,0.6-0.6l0,0c0.1,0,0.3,0.1,0.4,0.2
	c0.1,0.1,0.2,0.2,0.2,0.4v2.5c0,0.1,0,0.2,0.1,0.3l0.2,0.2c0.1,0.1,0.2,0.2,0.2,0.3C128.6,24.2,128.6,24.3,128.5,24.4z"/>
<path class="st0" d="M132.2,24.3c-0.1,0.1-0.2,0.1-0.3,0.1h-0.3c-0.3,0-0.5,0-0.7-0.1s-0.4-0.2-0.5-0.4c-0.1-0.2-0.2-0.4-0.3-0.6
	c-0.1-0.3-0.1-0.5-0.1-0.8V21h-0.1c-0.1,0-0.2,0-0.3-0.1s-0.1-0.2-0.1-0.3c0-0.2,0.2-0.4,0.4-0.4l0,0h0.2v-0.6
	c0-0.3,0.2-0.6,0.6-0.6l0,0c0.1,0,0.3,0.1,0.4,0.2c0.1,0.1,0.2,0.2,0.2,0.4v0.6h0.6c0.2,0,0.4,0.2,0.4,0.4l0,0c0,0.1,0,0.2-0.1,0.3
	c-0.1,0.1-0.2,0.1-0.3,0.1h-0.6v1.4c0,0.2,0,0.5,0.1,0.7s0.3,0.2,0.5,0.2h0.2c0.3,0,0.5,0.2,0.5,0.5l0,0
	C132.3,24.1,132.3,24.2,132.2,24.3z"/>
<path class="st0" d="M136.6,24.4c-0.1,0.1-0.2,0.2-0.4,0.2c-0.3,0-0.5-0.2-0.5-0.5l0,0V22c0-0.1,0-0.2,0-0.2c0-0.1,0-0.1-0.1-0.2
	c0-0.1-0.1-0.1-0.2-0.1c-0.1,0-0.2-0.1-0.3,0c-0.1,0-0.3,0-0.4,0.1c-0.1,0.1-0.2,0.1-0.3,0.2V24c0,0.3-0.2,0.5-0.5,0.5l0,0
	c-0.1,0-0.3-0.1-0.4-0.2c-0.1-0.1-0.2-0.2-0.2-0.4v-4.8c0-0.1,0.1-0.3,0.2-0.4c0.1-0.1,0.2-0.2,0.4-0.2c0.3,0,0.5,0.2,0.5,0.5l0,0
	v1.3c0.1-0.1,0.3-0.2,0.4-0.2c0.2,0,0.4-0.1,0.6-0.1c0.2,0,0.4,0,0.6,0.1c0.2,0.1,0.3,0.2,0.4,0.3c0.1,0.1,0.2,0.3,0.2,0.5
	s0.1,0.4,0.1,0.6V24C136.8,24.2,136.7,24.3,136.6,24.4z"/>
<path class="st0" d="M141.5,23.5c-0.1,0.2-0.2,0.4-0.3,0.5c-0.2,0.2-0.3,0.3-0.5,0.4c-0.5,0.2-1.1,0.2-1.6,0
	c-0.2-0.1-0.4-0.2-0.5-0.4c-0.1-0.2-0.3-0.3-0.3-0.5c-0.1-0.2-0.1-0.4-0.1-0.7v-0.9c0-0.2,0-0.4,0.1-0.7c0.1-0.2,0.2-0.4,0.3-0.6
	c0.2-0.2,0.3-0.3,0.5-0.4c0.5-0.2,1.1-0.2,1.6,0c0.2,0.1,0.4,0.2,0.5,0.4c0.1,0.2,0.3,0.3,0.3,0.6c0.1,0.2,0.1,0.4,0.1,0.7v0.9
	C141.6,23,141.6,23.2,141.5,23.5z M140.5,21.9c0-0.2,0-0.4-0.2-0.6c-0.3-0.2-0.7-0.2-1,0c-0.1,0.2-0.2,0.4-0.2,0.6v0.8
	c0,0.2,0,0.4,0.2,0.6c0.3,0.2,0.7,0.2,1,0c0.1-0.2,0.2-0.4,0.2-0.6V21.9z"/>
<path class="st0" d="M145.6,21.2c-0.1,0.1-0.3,0.1-0.4,0.1h-0.1h-0.2c-0.2,0-0.3,0-0.4,0.1c-0.1,0.1-0.2,0.2-0.3,0.4V24
	c0,0.3-0.2,0.5-0.5,0.5l0,0c-0.1,0-0.3-0.1-0.4-0.2c-0.1-0.1-0.2-0.2-0.2-0.4v-2.5c0-0.1,0-0.2-0.1-0.3l-0.2-0.2l-0.1-0.1
	c0-0.1,0-0.1,0-0.2s0-0.3,0.1-0.3c0.1-0.1,0.3-0.1,0.4-0.1h0.1h0.1c0.1,0,0.3,0.1,0.4,0.2c0.1,0.1,0.2,0.2,0.2,0.3
	c0.1-0.1,0.2-0.2,0.3-0.3c0.1-0.1,0.2-0.1,0.3-0.2c0.1,0,0.2-0.1,0.3-0.1h0.2c0.1,0,0.2,0,0.3,0s0.1,0,0.2,0.1
	c0.1,0.1,0.2,0.2,0.2,0.3c0,0.1,0,0.2,0,0.3C145.9,21,145.8,21.1,145.6,21.2z"/>
<path class="st0" d="M147.8,19.5c-0.1,0.1-0.3,0.2-0.4,0.2c-0.2,0-0.3-0.1-0.4-0.2c-0.2-0.2-0.2-0.6,0-0.9c0.1-0.1,0.3-0.2,0.4-0.2
	c0.2,0,0.3,0.1,0.4,0.2C148.1,18.8,148.1,19.2,147.8,19.5z M147.8,24.3c-0.1,0.1-0.2,0.2-0.4,0.2c-0.1,0-0.3-0.1-0.4-0.2
	c-0.1-0.1-0.2-0.2-0.2-0.4v-3.2c0-0.1,0.1-0.3,0.2-0.4c0.1-0.1,0.2-0.2,0.4-0.2c0.1,0,0.3,0.1,0.4,0.2c0.1,0.1,0.2,0.2,0.2,0.4V24
	C148,24.1,147.9,24.3,147.8,24.3L147.8,24.3z"/>
<path class="st0" d="M152.2,21.1l-1.7,2.4h1.4c0.1,0,0.3,0,0.3,0.1c0.1,0.1,0.1,0.2,0.1,0.3c0,0.1-0.1,0.3-0.1,0.3
	c-0.1,0.1-0.2,0.1-0.3,0.1h-2.3c-0.1,0-0.1,0-0.2,0c-0.1,0-0.1-0.1-0.2-0.1c0,0-0.1-0.1-0.1-0.2s0-0.1,0-0.2s0-0.2,0.1-0.3l1.7-2.4
	h-1.3c-0.3,0-0.5-0.2-0.5-0.5c0-0.1,0-0.3,0.1-0.3c0.1-0.1,0.2-0.1,0.3-0.1h2.2c0.1,0,0.2,0,0.3,0.1s0.2,0.2,0.2,0.4
	C152.3,20.9,152.3,21,152.2,21.1z"/>
<path class="st0" d="M156.6,22.6c-0.1,0.1-0.2,0.1-0.3,0.1h-2v0.2c0,0.2,0,0.4,0.2,0.6c0.1,0.1,0.3,0.2,0.5,0.2s0.3,0,0.5,0
	c0.1,0,0.3-0.1,0.4-0.1c0.1,0,0.2,0,0.3,0c0.1,0.1,0.2,0.2,0.2,0.3c0,0.1,0,0.2,0,0.3c0,0.1-0.1,0.2-0.2,0.2
	c-0.2,0.1-0.4,0.2-0.7,0.2c-0.2,0-0.4,0-0.6,0c-0.3,0-0.5,0-0.8-0.1c-0.2-0.1-0.4-0.2-0.5-0.4c-0.1-0.2-0.2-0.4-0.3-0.6
	s-0.1-0.5-0.1-0.7V22c0-0.2,0-0.5,0.1-0.7s0.2-0.4,0.3-0.6s0.3-0.3,0.5-0.4s0.5-0.2,0.8-0.1c0.3,0,0.5,0,0.8,0.1
	c0.2,0.1,0.4,0.2,0.5,0.4c0.1,0.2,0.2,0.4,0.3,0.6s0.1,0.4,0.1,0.7v0.4C156.7,22.4,156.7,22.5,156.6,22.6z M155.5,21.2
	c-0.1-0.1-0.3-0.2-0.5-0.2s-0.4,0.1-0.5,0.2c-0.1,0.2-0.2,0.3-0.2,0.5v0.1h1.3v-0.1C155.7,21.6,155.7,21.4,155.5,21.2L155.5,21.2z"
	/>
<path class="st0" d="M161.6,24.4c-0.1,0.1-0.3,0.1-0.4,0.1c-0.1,0-0.2,0-0.3,0s-0.2-0.1-0.2-0.1l-0.2-0.1c-0.1,0.1-0.3,0.2-0.5,0.2
	c-0.2,0.1-0.4,0.1-0.5,0.1c-0.5,0-0.9-0.2-1.2-0.5c-0.3-0.4-0.4-0.8-0.4-1.3v-0.7c0-0.3,0-0.5,0.1-0.8c0-0.2,0.1-0.4,0.3-0.6
	c0.1-0.2,0.3-0.3,0.5-0.4s0.5-0.1,0.7-0.1s0.3,0,0.5,0.1c0.1,0,0.3,0.1,0.4,0.2v-1.3c0-0.1,0.1-0.3,0.2-0.4c0.2-0.2,0.6-0.2,0.8,0
	c0.1,0.1,0.2,0.2,0.2,0.4v4.2c0,0.1,0,0.2,0.1,0.3c0,0.1,0.1,0.1,0.2,0.2L162,24c0,0.1,0,0.1,0,0.2
	C161.7,24.2,161.7,24.3,161.6,24.4z M160.2,21.4c-0.1-0.1-0.2-0.1-0.3-0.2c-0.1,0-0.2-0.1-0.3-0.1c-0.2,0-0.4,0.1-0.5,0.2
	c-0.1,0.2-0.2,0.4-0.1,0.6v1c0,0.2,0,0.4,0.1,0.5s0.3,0.2,0.5,0.2s0.4-0.1,0.6-0.2V21.4z"/>
<path class="st0" d="M123.2,32.8c0,0.3-0.1,0.5-0.3,0.7c-0.2,0.2-0.4,0.4-0.6,0.5c-0.3,0.2-0.7,0.2-1.1,0.2h-1.5
	c-0.1,0-0.3-0.1-0.4-0.2c-0.1-0.1-0.2-0.3-0.2-0.4v-4.8c0-0.1,0.1-0.3,0.2-0.4s0.2-0.2,0.4-0.2h1.5c0.4,0,0.7,0.1,1.1,0.2
	c0.3,0.1,0.5,0.3,0.6,0.5s0.2,0.5,0.3,0.7c0,0.2,0.1,0.5,0.1,0.7V32C123.3,32.3,123.3,32.5,123.2,32.8z M122.2,30.5
	c0-0.2,0-0.3,0-0.5c0-0.1-0.1-0.3-0.2-0.4s-0.2-0.2-0.3-0.2c-0.2-0.1-0.3-0.1-0.5-0.1h-0.9v3.8h1c0.2,0,0.4,0,0.5-0.1
	c0.1,0,0.2-0.1,0.3-0.2c0.1-0.1,0.1-0.2,0.2-0.4c0-0.2,0-0.3,0-0.5L122.2,30.5z"/>
<path class="st0" d="M125.8,29.2c-0.1,0.1-0.3,0.2-0.4,0.2c-0.2,0-0.3-0.1-0.4-0.2c-0.2-0.2-0.2-0.6,0-0.9c0.1-0.1,0.3-0.2,0.4-0.2
	c0.2,0,0.3,0.1,0.4,0.2C126,28.6,126,29,125.8,29.2z M125.8,34.1c-0.1,0.1-0.2,0.2-0.4,0.2c-0.1,0-0.3-0.1-0.4-0.2
	c-0.1-0.1-0.2-0.2-0.2-0.4v-3.2c0-0.1,0.1-0.3,0.2-0.4s0.2-0.2,0.4-0.2c0.1,0,0.3,0.1,0.4,0.2s0.2,0.2,0.2,0.4v3.2
	C125.9,33.9,125.8,34,125.8,34.1L125.8,34.1z"/>
<path class="st0" d="M130.1,33.6c-0.1,0.2-0.2,0.3-0.4,0.4c-0.2,0.1-0.4,0.2-0.5,0.2c-0.2,0-0.4,0.1-0.6,0.1c-0.2,0-0.5,0-0.7,0
	s-0.3-0.1-0.5-0.1c-0.1,0-0.2-0.1-0.2-0.2c0-0.1,0-0.2,0-0.3s0.1-0.2,0.2-0.3c0.1,0,0.2,0,0.4,0l0.4,0.1c0.2,0,0.3,0,0.5,0
	s0.3,0,0.5-0.1c0.1-0.1,0.2-0.2,0.2-0.3s0-0.2-0.1-0.2c-0.1-0.1-0.2-0.1-0.3-0.1l-0.4-0.1l-0.4-0.1l-0.4-0.1c-0.1,0-0.2-0.1-0.3-0.2
	c-0.1-0.1-0.2-0.2-0.2-0.3c-0.1-0.2-0.1-0.3-0.1-0.5s0-0.4,0.1-0.6s0.2-0.3,0.3-0.4c0.1-0.1,0.3-0.2,0.5-0.3
	c0.2-0.1,0.4-0.1,0.6-0.1c0.4,0,0.8,0,1.1,0.2c0.1,0,0.2,0.1,0.3,0.2c0,0.1,0,0.2,0,0.3c0,0.1-0.1,0.2-0.2,0.3c-0.1,0-0.2,0-0.4,0
	l-0.4-0.1c-0.1,0-0.3,0-0.4,0c-0.1,0-0.3,0-0.4,0.1c-0.1,0.1-0.1,0.1-0.1,0.2s0,0.2,0.1,0.2c0.1,0.1,0.1,0.1,0.2,0.1l0.3,0.1
	l0.4,0.1l0.4,0.1c0.1,0,0.3,0.1,0.4,0.2c0.1,0.1,0.2,0.2,0.3,0.4s0.1,0.4,0.1,0.5C130.3,33.2,130.3,33.4,130.1,33.6z"/>
<path class="st0" d="M133.9,34.1c-0.1,0.1-0.2,0.1-0.3,0.1h-0.3c-0.3,0-0.5,0-0.7-0.1s-0.4-0.2-0.5-0.4s-0.2-0.4-0.3-0.6
	c-0.1-0.3-0.1-0.5-0.1-0.8v-1.5h-0.1c-0.1,0-0.2,0-0.3-0.1s-0.1-0.2-0.1-0.3c0-0.2,0.2-0.4,0.4-0.4l0,0h0.1v-0.6
	c0-0.3,0.2-0.6,0.6-0.6l0,0c0.1,0,0.3,0.1,0.4,0.2c0.1,0.1,0.2,0.2,0.2,0.4V30h0.6c0.2,0,0.4,0.2,0.4,0.4l0,0c0,0.1,0,0.2-0.1,0.3
	c-0.1,0.1-0.2,0.1-0.3,0.1h-0.6v1.4c0,0.2,0,0.5,0.1,0.7s0.3,0.2,0.5,0.2h0.2c0.3,0,0.5,0.2,0.5,0.5l0,0C134,33.8,134,34,133.9,34.1
	z"/>
<path class="st0" d="M137.7,31c-0.1,0.1-0.3,0.1-0.4,0.1h-0.1H137c-0.2,0-0.3,0-0.4,0.1c-0.1,0.1-0.2,0.2-0.3,0.4v2.3
	c0,0.3-0.2,0.5-0.5,0.5l0,0c-0.1,0-0.3-0.1-0.4-0.2c-0.1-0.1-0.2-0.2-0.2-0.4v-2.5c0-0.1,0-0.2-0.1-0.3l-0.2-0.2l-0.1-0.1
	c0-0.1,0-0.1,0-0.2s0-0.3,0.1-0.3c0.1-0.1,0.3-0.1,0.4-0.1h0.1h0.1c0.1,0,0.3,0.1,0.4,0.2c0.1,0.1,0.2,0.2,0.2,0.3
	c0.1-0.1,0.2-0.2,0.3-0.3c0.1-0.1,0.2-0.1,0.3-0.2c0.1,0,0.2-0.1,0.3-0.1h0.2c0.1,0,0.2,0,0.3,0s0.1,0,0.2,0.1
	c0.1,0.1,0.2,0.2,0.2,0.3c0,0.1,0,0.2,0,0.3C137.9,30.8,137.8,30.9,137.7,31z"/>
<path class="st0" d="M139.9,29.2c-0.1,0.1-0.3,0.2-0.4,0.2c-0.2,0-0.3-0.1-0.4-0.2c-0.2-0.2-0.2-0.6,0-0.9c0.1-0.1,0.3-0.2,0.4-0.2
	c0.2,0,0.3,0.1,0.4,0.2C140.1,28.6,140.1,29,139.9,29.2z M139.9,34.1c-0.1,0.1-0.2,0.2-0.4,0.2c-0.1,0-0.3-0.1-0.4-0.2
	c-0.1-0.1-0.2-0.2-0.2-0.4v-3.2c0-0.1,0.1-0.3,0.2-0.4c0.1-0.1,0.2-0.2,0.4-0.2c0.1,0,0.3,0.1,0.4,0.2c0.1,0.1,0.2,0.2,0.2,0.4v3.2
	C140,33.9,140,34,139.9,34.1L139.9,34.1z"/>
<path class="st0" d="M144.6,33.8c-0.3,0.3-0.7,0.5-1.2,0.5c-0.2,0-0.4,0-0.6-0.1c-0.2-0.1-0.3-0.1-0.5-0.2l-0.1,0.1l-0.1,0.1
	c-0.1,0.1-0.2,0.1-0.2,0.1c-0.1,0-0.2,0-0.3,0s-0.3,0-0.4-0.1c-0.1-0.1-0.2-0.2-0.2-0.3s0-0.1,0-0.2c0-0.1,0.1-0.1,0.1-0.1
	c0.1,0,0.1-0.1,0.2-0.2c0-0.1,0.1-0.2,0.1-0.3V29c0-0.1,0.1-0.3,0.2-0.4c0.1-0.1,0.2-0.2,0.4-0.2c0.3,0,0.6,0.2,0.6,0.5
	c0,0,0,0,0,0.1v1.4c0.1-0.1,0.3-0.2,0.4-0.2c0.2-0.1,0.4-0.2,0.6-0.2c0.2,0,0.5,0,0.7,0.1s0.3,0.2,0.4,0.4c0.1,0.2,0.2,0.4,0.2,0.6
	c0,0.3,0.1,0.5,0.1,0.8v0.7C145.1,33,144.9,33.4,144.6,33.8z M143.9,31.6c0-0.2,0-0.4-0.1-0.6c-0.1-0.1-0.3-0.2-0.5-0.2
	c-0.1,0-0.2,0-0.3,0.1c-0.1,0-0.2,0.1-0.3,0.2v2c0.1,0.1,0.2,0.1,0.3,0.2c0.1,0,0.2,0.1,0.3,0.1c0.2,0,0.4,0,0.5-0.2
	s0.2-0.4,0.2-0.6L143.9,31.6z"/>
<path class="st0" d="M150.1,34.2c-0.1,0.1-0.3,0.1-0.4,0.1c-0.1,0-0.2,0-0.3,0c-0.2-0.1-0.4-0.2-0.5-0.4c-0.1,0.1-0.3,0.2-0.5,0.3
	s-0.5,0.1-0.7,0.1s-0.4,0-0.6-0.1c-0.2-0.1-0.3-0.2-0.4-0.3c-0.1-0.1-0.2-0.3-0.2-0.5c-0.1-0.2-0.1-0.4-0.1-0.6v-2.3
	c0-0.1,0.1-0.3,0.2-0.4c0.1-0.1,0.2-0.2,0.4-0.2c0.3,0,0.6,0.2,0.6,0.6l0,0v2.1c0,0.1,0,0.2,0,0.3s0,0.1,0.1,0.2
	c0,0.1,0.1,0.1,0.2,0.1c0.1,0,0.2,0,0.3,0s0.3,0,0.4-0.1c0.1-0.1,0.2-0.1,0.3-0.2v-2.4c0-0.3,0.2-0.6,0.6-0.6l0,0
	c0.1,0,0.3,0.1,0.4,0.2c0.1,0.1,0.2,0.2,0.2,0.4V33c0,0.1,0,0.2,0.1,0.3l0.2,0.2c0.1,0.1,0.2,0.2,0.2,0.3
	C150.3,34,150.2,34.1,150.1,34.2z"/>
<path class="st0" d="M153.8,34.1c-0.1,0.1-0.2,0.1-0.3,0.1h-0.3c-0.3,0-0.5,0-0.7-0.1s-0.4-0.2-0.5-0.4s-0.2-0.4-0.3-0.6
	c-0.1-0.3-0.1-0.5-0.1-0.8v-1.5h-0.1c-0.1,0-0.2,0-0.3-0.1s-0.1-0.2-0.1-0.3c0-0.2,0.2-0.4,0.4-0.4l0,0h0.1v-0.6
	c0-0.3,0.2-0.6,0.6-0.6l0,0c0.1,0,0.3,0.1,0.4,0.2c0.1,0.1,0.2,0.2,0.2,0.4V30h0.6c0.2,0,0.4,0.2,0.4,0.4l0,0c0,0.1,0,0.2-0.1,0.3
	c-0.1,0.1-0.2,0.1-0.3,0.1h-0.6v1.4c0,0.2,0,0.5,0.1,0.7s0.3,0.2,0.5,0.2h0.2c0.3,0,0.5,0.2,0.5,0.5l0,0
	C154,33.9,153.9,34,153.8,34.1z"/>
<path class="st0" d="M158.2,33.2c-0.1,0.2-0.2,0.4-0.3,0.5c-0.2,0.2-0.3,0.3-0.5,0.4c-0.5,0.2-1.1,0.2-1.6,0
	c-0.2-0.1-0.4-0.2-0.5-0.4s-0.3-0.3-0.3-0.5c-0.1-0.2-0.1-0.4-0.1-0.7v-0.9c0-0.2,0-0.4,0.1-0.7c0.1-0.2,0.2-0.4,0.3-0.6
	c0.2-0.2,0.3-0.3,0.5-0.4c0.5-0.2,1.1-0.2,1.6,0c0.2,0.1,0.4,0.2,0.5,0.4c0.1,0.2,0.3,0.3,0.3,0.6c0.1,0.2,0.1,0.4,0.1,0.7v0.9
	C158.3,32.8,158.3,33,158.2,33.2z M157.2,31.7c0-0.2,0-0.4-0.2-0.6c-0.3-0.2-0.7-0.2-1,0c-0.1,0.2-0.2,0.4-0.2,0.6v0.8
	c0,0.2,0,0.4,0.2,0.6c0.3,0.2,0.7,0.2,1,0c0.1-0.2,0.2-0.4,0.2-0.6V31.7z"/>
<path class="st0" d="M162.3,31c-0.1,0.1-0.3,0.1-0.4,0.1h-0.1h-0.2c-0.2,0-0.3,0-0.4,0.1c-0.1,0.1-0.2,0.2-0.3,0.4v2.3
	c0,0.3-0.2,0.5-0.5,0.5l0,0c-0.1,0-0.3-0.1-0.4-0.2c-0.1-0.1-0.2-0.2-0.2-0.4v-2.5c0-0.1,0-0.2-0.1-0.3l-0.2-0.2l-0.1-0.1
	c0-0.1,0-0.1,0-0.2s0-0.3,0.1-0.3c0.1-0.1,0.3-0.1,0.4-0.1h0.1h0.1c0.1,0,0.3,0.1,0.4,0.2c0.1,0.1,0.2,0.2,0.2,0.3
	c0.1-0.1,0.2-0.2,0.3-0.3c0.1-0.1,0.2-0.1,0.3-0.2c0.1,0,0.2-0.1,0.3-0.1h0.2c0.1,0,0.2,0,0.3,0s0.1,0,0.2,0.1
	c0.1,0.1,0.2,0.2,0.2,0.3c0,0.1,0,0.2,0,0.3C162.6,30.8,162.5,30.9,162.3,31z"/>
<g>
	<path class="st5" d="M333.7,41H186.4c-2.4,0-4.3-1.9-4.3-4.3V7.9c0-2.4,1.9-4.3,4.3-4.3h147.3c2.4,0,4.3,1.9,4.3,4.3v28.8
		C338,39,336.1,41,333.7,41z"/>
	<path class="st6" d="M333.4,40.4H186.6c-2.2,0-4-1.8-4-4V36h154.9v0.4C337.5,38.6,335.7,40.4,333.4,40.4z"/>
</g>
<g>
	<path class="st7" d="M241.8,22.6h-1.2c-0.2,0-0.3-0.1-0.3-0.3v-1.9h4.5v4.9c0,0.5-0.2,0.8-0.7,1.2c-0.4,0.3-1,0.5-1.6,0.5h-4.5
		c-0.6,0-1.1-0.2-1.6-0.5c-0.5-0.3-0.7-0.7-0.7-1.2v-8.7c0-0.5,0.2-0.8,0.7-1.2c0.4-0.3,1-0.5,1.6-0.5h4.5c0.6,0,1.1,0.2,1.6,0.5
		c0.5,0.3,0.7,0.7,0.7,1.2V19h-2.7c-0.2,0-0.4-0.2-0.4-0.4v-1.5h-2.6c-0.2,0-0.4,0.2-0.4,0.4v6.8c0,0.2,0.2,0.4,0.4,0.4h2.6V22.6z"
		/>
	<path class="st7" d="M253.3,14.9c0.6,0,1.1,0.2,1.6,0.5c0.5,0.3,0.7,0.7,0.7,1.2v8.7c0,0.5-0.2,0.8-0.7,1.2c-0.4,0.3-1,0.5-1.6,0.5
		h-4.5c-0.6,0-1.1-0.2-1.6-0.5c-0.5-0.3-0.7-0.7-0.7-1.2v-8.7c0-0.5,0.2-0.8,0.7-1.2c0.4-0.3,1-0.5,1.6-0.5H253.3z M249.6,17.5v6.8
		c0,0.2,0.2,0.4,0.4,0.4h2.2c0.2,0,0.4-0.2,0.4-0.4v-6.8c0-0.2-0.2-0.4-0.4-0.4h-2.2C249.7,17.1,249.6,17.3,249.6,17.5z"/>
	<path class="st7" d="M262.8,17.1h-2.2c-0.2,0-0.4,0.2-0.4,0.4v6.8c0,0.2,0.2,0.4,0.4,0.4h2.2c0.2,0,0.4-0.2,0.4-0.4v-1.2
		c0-0.2,0.1-0.3,0.3-0.3h2.8v2.4c0,0.5-0.2,0.8-0.7,1.2c-0.4,0.3-1,0.5-1.6,0.5h-4.5c-0.6,0-1.1-0.2-1.6-0.5
		c-0.5-0.3-0.7-0.7-0.7-1.2v-8.7c0-0.5,0.2-0.8,0.7-1.2c0.4-0.3,1-0.5,1.6-0.5h4.5c0.6,0,1.1,0.2,1.6,0.5c0.5,0.3,0.7,0.7,0.7,1.2
		V19h-2.8c-0.2,0-0.3-0.1-0.3-0.3v-1.2C263.2,17.3,263,17.1,262.8,17.1z"/>
	<path class="st7" d="M294.2,22v4.5c0,0.2-0.2,0.4-0.4,0.4h-2.7v-12h2.7c0.2,0,0.4,0.2,0.4,0.4v4.5h2.9v-4.5c0-0.2,0.2-0.4,0.4-0.4
		h2.7v12h-2.7c-0.2,0-0.4-0.2-0.4-0.4V22H294.2z"/>
	<path class="st7" d="M231.2,15.3v7.2c0,0,0,0,0,0l-3.1-7.3c-0.1-0.1-0.2-0.2-0.3-0.2h-0.4h-3v12h2.7c0.2,0,0.4-0.2,0.4-0.4v-7.4
		c0,0,0,0,0,0l3.1,7.5c0.1,0.1,0.2,0.2,0.3,0.2h0.4h3v-12h-2.7C231.3,14.9,231.2,15.1,231.2,15.3z"/>
	<path class="st7" d="M286.5,15.3v7.2l-3.1-7.3c-0.1-0.1-0.2-0.2-0.3-0.2h-0.4h-3v12h2.7c0.2,0,0.4-0.2,0.4-0.4v-7.4l3.1,7.6
		c0.1,0.1,0.2,0.2,0.3,0.2h0.4h3v-12h-2.7C286.6,14.9,286.5,15.1,286.5,15.3z"/>
	<g>
		<path class="st7" d="M311.5,19h-0.4c-0.2,0-0.3,0.1-0.3,0.3v3.5c0,0.2,0.1,0.3,0.3,0.3h0.4c0.2,0,0.3-0.1,0.3-0.3v-3.5
			C311.8,19.1,311.7,19,311.5,19z"/>
		<path class="st7" d="M305.2,15c-1.3,0-2.4,1.1-2.4,2.4v7.6c0.2-0.7,0.8-1.1,1.5-1.1c0.8,0,1.5,0.7,1.5,1.5c0,0.7-0.5,1.3-1.1,1.5
			h13.2c1.8,0,3.2-1.4,3.2-3.2V15H305.2z M308.9,19.9c0,0.1,0,0.1-0.1,0.1H308c-0.1,0-0.1,0-0.1-0.1v-0.6c0-0.2-0.1-0.3-0.3-0.3
			h-0.4c-0.2,0-0.3,0.1-0.3,0.3v3.4c0,0.2,0.1,0.3,0.3,0.3h0.4c0.2,0,0.3-0.1,0.3-0.3v-0.6c0-0.1,0-0.1,0.1-0.1h0.7
			c0.1,0,0.1,0,0.1,0.1V23c0,0.7-0.4,1.1-1.1,1.1H307c-0.7,0-1.1-0.4-1.1-1.1v-3.8c0-0.7,0.4-1.1,1.1-1.1h0.8c0.7,0,1.1,0.4,1.1,1.1
			V19.9z M312.8,23c0,0.7-0.4,1.1-1.1,1.1h-0.8c-0.7,0-1.1-0.4-1.1-1.1v-3.8c0-0.7,0.4-1.1,1.1-1.1h0.8c0.7,0,1.1,0.4,1.1,1.1V23z
			 M318,23.9c0,0.1-0.1,0.1-0.1,0.1h-0.7c-0.1,0-0.1-0.1-0.1-0.1v-3.4H317l-0.7,3.4c0,0.1-0.1,0.1-0.2,0.1h-0.4
			c-0.1,0-0.1,0-0.2-0.1l-0.7-3.4h-0.1v3.4c0,0.1-0.1,0.1-0.1,0.1h-0.7c-0.1,0-0.1-0.1-0.1-0.1v-5.7c0-0.1,0.1-0.1,0.1-0.1h1
			c0.1,0,0.1,0,0.2,0.1l0.8,3.7l0.8-3.7c0-0.1,0.1-0.1,0.2-0.1h1c0.1,0,0.1,0.1,0.1,0.1V23.9z"/>
	</g>
	<g>
		<polygon class="st7" points="214.6,19.7 214.7,17.4 212.1,16.2 212.2,19.7 		"/>
		<path class="st7" d="M218.8,14.3l-8.8-5.1c-0.2-0.1-0.5-0.2-0.8-0.2c-0.3,0-0.6,0.1-0.8,0.2l-8.8,5.1c-0.4,0.3-0.8,0.9-0.8,1.4V26
			c0,0.5,0.4,1.2,0.8,1.4l8.8,5.1c0.2,0.1,0.5,0.2,0.8,0.2c0.3,0,0.6-0.1,0.8-0.2l8.8-5.1c0.4-0.3,0.8-0.9,0.8-1.4V15.8
			C219.6,15.3,219.2,14.6,218.8,14.3z M208.6,29.9l-2.6-1.6l-2.5-7.4l0,5.9l-2.4-1.4l0-9.3l2.3-1.3l2.6,5.8l0-7.3l2.6-1.5V29.9z
			 M217.1,25.5l-2.4,1.4l0-5.1l-2.5,0v6.5l-2.6,1.5l-0.1-18l7.6,4.4L217.1,25.5z"/>
	</g>
	<path class="st7" d="M271,26.9l2-7.9l2,7.9h3.1l-3.6-12h-2.6c-0.2,0-0.4,0.1-0.4,0.3l-3.5,11.7H271z"/>
	<polygon class="st7" points="272.2,26.9 273,23.7 273.8,26.9 	"/>
</g>
</svg>
