<svg id="Layer_1" data-name="Layer 1" xmlns="http://www.w3.org/2000/svg" xmlns:xlink="http://www.w3.org/1999/xlink" viewBox="0 0 316.55 56"><defs><style>.cls-1,.cls-4{fill:#fff;}.cls-2,.cls-6{fill:#0a73b8;}.cls-2,.cls-3,.cls-4{fill-rule:evenodd;}.cls-3{fill:#e82629;}.cls-5{stroke:#0a74ba;stroke-miterlimit:10;stroke-width:0.5px;fill:url(#linear-gradient);}.cls-7{fill:#231f20;}</style><linearGradient id="linear-gradient" x1="188.17" y1="-31.79" x2="257.21" y2="87.81" gradientUnits="userSpaceOnUse"><stop offset="0" stop-color="#fff"/><stop offset="0.01" stop-color="#fefeff"/><stop offset="0.44" stop-color="#dae6f5"/><stop offset="0.78" stop-color="#c4d7ef"/><stop offset="1" stop-color="#bcd2ed"/></linearGradient></defs><title>dluq-ft</title><rect class="cls-1" y="15.32" width="118.72" height="33.79"/><path class="cls-2" d="M5.53,1.6H116a4.14,4.14,0,0,1,4.14,4.14V46.21H1.38V5.75A4.14,4.14,0,0,1,5.53,1.6Z" transform="translate(-1.37 -1.6)"/><path class="cls-3" d="M120.11,49H1.38v4.46A4.14,4.14,0,0,0,5.53,57.6H116a4.14,4.14,0,0,0,4.14-4.14V49Z" transform="translate(-1.37 -1.6)"/><path class="cls-4" d="M56.86,26.54l.13-.11c.11,0,.11,0,.11.11l8.18,8.16a.65.65,0,0,0,.56.35H76a1,1,0,0,0,.89-.93v-7a1,1,0,0,0-.89-.93H68.63a.9.9,0,0,1-.56-.22L62.7,20.44a.11.11,0,0,1-.11-.11.11.11,0,0,0,.11-.11l2.46-2.54a1.67,1.67,0,0,1,.67-.22h7.29a1,1,0,0,0,.9-.93v-4a.83.83,0,0,0-.9-.91H66a.83.83,0,0,0-.56.22l-8.3,8.51H57s-.13,0-.13-.11V12.51c0-.58-.33-.91-.78-.91h-8.3c-.45,0-.78.34-.78.91v7a.77.77,0,0,0,.78.8.61.61,0,0,1,.56.57v4.71a.53.53,0,0,1-.56.57.88.88,0,0,0-.78.93v7a.88.88,0,0,0,.78.93h8.3a.88.88,0,0,0,.78-.93V26.54Z" transform="translate(-1.37 -1.6)"/><path class="cls-4" d="M32.18,17.46a.89.89,0,0,1-.89-.93V15a.61.61,0,0,0-.56-.58H26.14a.6.6,0,0,0-.56.58v4.71a.53.53,0,0,0,.56.57h15.7a.89.89,0,0,1,.78.93V34.13a.89.89,0,0,1-.78.93H15a1,1,0,0,1-.9-.93v-7a1,1,0,0,1,.9-.93h6.84a.88.88,0,0,1,.78.93v4.36a.64.64,0,0,0,.69.57h10.2a.54.54,0,0,0,.56-.57V23.89a.55.55,0,0,0-.56-.58H17.84a1,1,0,0,1-.9-.91l.11-9.9a.81.81,0,0,1,.79-.91H38.91a.89.89,0,0,1,.9.91v4a1,1,0,0,1-.9.93Z" transform="translate(-1.37 -1.6)"/><path class="cls-4" d="M100.49,17.46a.88.88,0,0,1-.78-.93V15a.73.73,0,0,0-.56-.58H90.29a.6.6,0,0,0-.56.58v4.71a.53.53,0,0,0,.56.57h3.15a.54.54,0,0,0,.56-.57.79.79,0,0,1,.89-.8h6.84a.78.78,0,0,1,.79.8v4.14a.79.79,0,0,1-.79.81H94.88a.81.81,0,0,1-.89-.81.55.55,0,0,0-.56-.58H90.29a.54.54,0,0,0-.56.58v1.72a.53.53,0,0,0,.56.57,1,1,0,0,1,.9.93v7a1,1,0,0,1-.9.93H82a.88.88,0,0,1-.78-.93v-7a.88.88,0,0,1,.78-.93.53.53,0,0,0,.56-.57V20.91a.61.61,0,0,0-.56-.57.77.77,0,0,1-.78-.8v-7c0-.58.33-.91.78-.91h28.27a.89.89,0,0,1,.89.91v4a1,1,0,0,1-.89.93Z" transform="translate(-1.37 -1.6)"/><rect class="cls-5" x="129.08" y="0.33" width="187.23" height="55.36" rx="4.73" ry="4.73"/><path class="cls-6" d="M166.83,30.05H316.4a0,0,0,0,1,0,0V50.83a4.73,4.73,0,0,1-4.73,4.73H141.32a0,0,0,0,1,0,0v0a25.51,25.51,0,0,1,25.51-25.51Z"/><path class="cls-1" d="M184.05,49.6h-2.52a.58.58,0,0,1-.58-.58V40.76a.57.57,0,0,1,.17-.41.55.55,0,0,1,.41-.17h2.52q3.32,0,3.32,3.52v2.42Q187.37,49.6,184.05,49.6Zm2.16-5.9q0-2.42-2.22-2.42h-1.88v7.23H184q2.22,0,2.22-2.42Z" transform="translate(-1.37 -1.6)"/><path class="cls-1" d="M193.56,49.68a.91.91,0,0,1-.67-.27.86.86,0,0,1-.26-.39,2.34,2.34,0,0,1-1.81.66,2.46,2.46,0,0,1-1.73-.54,1.79,1.79,0,0,1-.53-1.36v-.1a1.69,1.69,0,0,1,.57-1.34,2.78,2.78,0,0,1,1.81-.53h1.47v-.31a2,2,0,0,0-.26-1.16,1.28,1.28,0,0,0-1.07-.39,2.72,2.72,0,0,0-1.32.32.57.57,0,0,1-.27.08.44.44,0,0,1-.34-.15.49.49,0,0,1-.14-.34.46.46,0,0,1,.23-.4,3.54,3.54,0,0,1,1.9-.45,2.37,2.37,0,0,1,1.89.66,3,3,0,0,1,.51,1.94V48a.85.85,0,0,0,.36.81.43.43,0,0,1,.22.38Q194.11,49.68,193.56,49.68Zm-1.15-3H191q-1.37,0-1.37,1v.1q0,1,1.33,1a1.22,1.22,0,0,0,1.4-1.36Z" transform="translate(-1.37 -1.6)"/><path class="cls-1" d="M196.54,41.41a.65.65,0,0,1-.48.19.66.66,0,0,1,0-1.32.65.65,0,0,1,.48.19.65.65,0,0,1,0,.93Zm-.07,8.12a.56.56,0,0,1-.41.16.54.54,0,0,1-.39-.16.55.55,0,0,1-.16-.41V43.57a.56.56,0,0,1,.16-.4.52.52,0,0,1,.39-.17.54.54,0,0,1,.41.17.56.56,0,0,1,.16.4v5.55A.55.55,0,0,1,196.47,49.52Z" transform="translate(-1.37 -1.6)"/><path class="cls-1" d="M203.43,49.68a1.06,1.06,0,0,1-.7-.27,1.44,1.44,0,0,1-.51-1.2V40.8a.53.53,0,0,1,.17-.39.58.58,0,0,1,.8,0,.53.53,0,0,1,.17.39V48a.83.83,0,0,0,.4.81.39.39,0,0,1,.22.38Q204,49.68,203.43,49.68Z" transform="translate(-1.37 -1.6)"/><path class="cls-1" d="M208.32,48.7A7.08,7.08,0,0,1,207,51.13a2.68,2.68,0,0,1-1.89.84.57.57,0,0,1-.45-.16.54.54,0,0,1-.17-.4.49.49,0,0,1,.53-.54,2.14,2.14,0,0,0,1.82-1.32q-.74-1.85-1.28-3.3t-.88-2.55l0-.09a.56.56,0,0,1,0-.09.47.47,0,0,1,.17-.37.6.6,0,0,1,.4-.14.51.51,0,0,1,.49.39q.35,1.1.77,2.28t.91,2.46l1.6-4.76a.52.52,0,0,1,.52-.37.59.59,0,0,1,.4.15.49.49,0,0,1,.17.38.72.72,0,0,1,0,.22Zm-.88-7a.45.45,0,0,1-.39.25.44.44,0,0,1-.32-.13.41.41,0,0,1-.08-.5l1-1.78a.48.48,0,0,1,.44-.29.55.55,0,0,1,.25.07.46.46,0,0,1,.26.43.43.43,0,0,1-.06.23Z" transform="translate(-1.37 -1.6)"/><path class="cls-1" d="M220.23,49.68a1.07,1.07,0,0,1-.7-.27,1.21,1.21,0,0,1-.31-.48,2.63,2.63,0,0,1-2,.75q-2.11,0-2.11-2.35V43.57a.56.56,0,0,1,.16-.4.54.54,0,0,1,.41-.17.53.53,0,0,1,.39.17.56.56,0,0,1,.16.4v3.66a1.66,1.66,0,0,0,.25,1,1.18,1.18,0,0,0,1,.38,1.6,1.6,0,0,0,1.56-.87V43.57a.57.57,0,0,1,1.14,0V48a.83.83,0,0,0,.4.81.4.4,0,0,1,.22.38Q220.79,49.68,220.23,49.68Z" transform="translate(-1.37 -1.6)"/><path class="cls-1" d="M224.94,48.7a7.08,7.08,0,0,1-1.31,2.43,2.68,2.68,0,0,1-1.89.84.57.57,0,0,1-.45-.16.54.54,0,0,1-.17-.4.49.49,0,0,1,.53-.54,2.14,2.14,0,0,0,1.82-1.32q-.74-1.85-1.28-3.3t-.88-2.55l0-.09a.56.56,0,0,1,0-.09.47.47,0,0,1,.17-.37.6.6,0,0,1,.4-.14.51.51,0,0,1,.49.39q.35,1.1.77,2.28t.91,2.46l1.6-4.76a.52.52,0,0,1,.52-.37.59.59,0,0,1,.4.15.49.49,0,0,1,.17.38.72.72,0,0,1,0,.22Z" transform="translate(-1.37 -1.6)"/><path class="cls-1" d="M236.81,43.86a.84.84,0,0,0-.36.81V51.4a.55.55,0,0,1-.16.41.54.54,0,0,1-.39.16.55.55,0,0,1-.57-.57V49.07a2.38,2.38,0,0,1-1.63.61q-2.24,0-2.24-2.79V45.65q0-2.65,2.4-2.65a2.78,2.78,0,0,1,1.69.54,1,1,0,0,1,.92-.54c.37,0,.56.16.56.49A.39.39,0,0,1,236.81,43.86ZM234,44q-1.41,0-1.41,1.59V47q0,1.67,1.33,1.67a1.74,1.74,0,0,0,1.4-.67V44.48A2,2,0,0,0,234,44Z" transform="translate(-1.37 -1.6)"/><path class="cls-1" d="M243.45,49.68a1.07,1.07,0,0,1-.7-.27,1.21,1.21,0,0,1-.31-.48,2.63,2.63,0,0,1-2,.75q-2.11,0-2.11-2.35V43.57a.56.56,0,0,1,.16-.4.54.54,0,0,1,.41-.17.53.53,0,0,1,.39.17.56.56,0,0,1,.16.4v3.66a1.66,1.66,0,0,0,.25,1,1.18,1.18,0,0,0,1,.38,1.6,1.6,0,0,0,1.56-.87V43.57a.57.57,0,0,1,1.14,0V48a.83.83,0,0,0,.4.81.4.4,0,0,1,.22.38Q244,49.68,243.45,49.68Z" transform="translate(-1.37 -1.6)"/><path class="cls-1" d="M248.15,48.7a7.08,7.08,0,0,1-1.31,2.43A2.68,2.68,0,0,1,245,52a.57.57,0,0,1-.45-.16.54.54,0,0,1-.17-.4.49.49,0,0,1,.53-.54,2.14,2.14,0,0,0,1.82-1.32q-.74-1.85-1.28-3.3t-.88-2.55l0-.09a.56.56,0,0,1,0-.09.47.47,0,0,1,.17-.37.6.6,0,0,1,.4-.14.51.51,0,0,1,.49.39q.35,1.1.77,2.28t.91,2.46l1.6-4.76a.52.52,0,0,1,.52-.37.59.59,0,0,1,.4.15.49.49,0,0,1,.17.38.72.72,0,0,1,0,.22Z" transform="translate(-1.37 -1.6)"/><path class="cls-1" d="M255.86,46.24a.38.38,0,0,1-.43.44H251.9V47q0,1.68,1.46,1.68a3.41,3.41,0,0,0,1.62-.36.38.38,0,0,1,.19-.05.41.41,0,0,1,.32.15.54.54,0,0,1,.13.35.45.45,0,0,1-.26.41,4.3,4.3,0,0,1-2,.47,2.38,2.38,0,0,1-2-.81,3,3,0,0,1-.58-1.93v-1.2a2.91,2.91,0,0,1,.59-1.93,2.78,2.78,0,0,1,3.93,0,2.94,2.94,0,0,1,.56,1.9Zm-1.54-3.83-1-.93-1,.93a.35.35,0,0,1-.22.09.37.37,0,0,1-.36-.36.36.36,0,0,1,.13-.27L253,40.71a.33.33,0,0,1,.27-.11.36.36,0,0,1,.27.11l1.21,1.17a.36.36,0,0,1,.13.27.34.34,0,0,1-.58.26Zm.44,3.16q0-1.64-1.41-1.64t-1.45,1.64v.22h2.86Z" transform="translate(-1.37 -1.6)"/><path class="cls-1" d="M262.46,49.52a.55.55,0,0,1-.41.16.54.54,0,0,1-.39-.16.55.55,0,0,1-.16-.41V45.47a1.68,1.68,0,0,0-.25-1,1.16,1.16,0,0,0-1-.39,1.66,1.66,0,0,0-1.56.81v4.23a.54.54,0,0,1-.17.41.56.56,0,0,1-.4.16.57.57,0,0,1-.57-.57V44.76a.83.83,0,0,0-.4-.81.39.39,0,0,1-.22-.37c0-.33.19-.49.56-.49a1.1,1.1,0,0,1,.7.27,1.24,1.24,0,0,1,.28.43,2.6,2.6,0,0,1,2-.78q2.12,0,2.12,2.37v3.75A.55.55,0,0,1,262.46,49.52Z" transform="translate(-1.37 -1.6)"/><path class="cls-1" d="M274,48a2.5,2.5,0,0,1-.67.91,3,3,0,0,1-1.06.57,4.67,4.67,0,0,1-1.4.19,6.72,6.72,0,0,1-2.48-.41.54.54,0,0,1-.38-.53.56.56,0,0,1,.15-.39.47.47,0,0,1,.37-.17,1.42,1.42,0,0,1,.4.12l.36.12a2.13,2.13,0,0,0,.34.08,5.59,5.59,0,0,0,1.15.12,2.71,2.71,0,0,0,1.73-.48,1.51,1.51,0,0,0,.56-1.25,1.23,1.23,0,0,0-.3-.89,2.15,2.15,0,0,0-1-.51c-.09,0-.53-.13-1.31-.28a5.37,5.37,0,0,1-1.31-.39,2,2,0,0,1-1.16-2,2.61,2.61,0,0,1,.85-2,3.16,3.16,0,0,1,2.19-.75,5.63,5.63,0,0,1,2.15.36.53.53,0,0,1,.39.52.57.57,0,0,1-.15.39.5.5,0,0,1-.39.17,5.64,5.64,0,0,1-.83-.18,4.73,4.73,0,0,0-1.1-.18,2.15,2.15,0,0,0-1.42.43,1.45,1.45,0,0,0-.52,1.17,1.22,1.22,0,0,0,.34.91,2.13,2.13,0,0,0,.94.45l.74.16.72.15a4.3,4.3,0,0,1,1.36.49,2.15,2.15,0,0,1,.93,1.93A3.05,3.05,0,0,1,274,48Z" transform="translate(-1.37 -1.6)"/><path class="cls-1" d="M281.94,49.15a.53.53,0,0,1-.19.4.62.62,0,0,1-.42.17.54.54,0,0,1-.5-.32q-.6-1.06-1.27-2.13t-1.45-2.19L277,46.37v2.77a.58.58,0,1,1-1.16,0v-8.5a.57.57,0,0,1,.17-.41.58.58,0,0,1,.83,0,.57.57,0,0,1,.17.41v4.16l3.66-4.54a.56.56,0,0,1,.84,0,.57.57,0,0,1,.17.41.52.52,0,0,1-.13.36l-2.69,3.18a47,47,0,0,1,3,4.68A.59.59,0,0,1,281.94,49.15Z" transform="translate(-1.37 -1.6)"/><path class="cls-1" d="M288.39,41.13a.54.54,0,0,1-.39.16H284.4v3.06h3a.55.55,0,0,1,.54.54.55.55,0,0,1-.54.54h-3v3.7a.58.58,0,1,1-1.16,0V40.73a.54.54,0,0,1,.16-.39.52.52,0,0,1,.39-.17H288a.53.53,0,0,1,.39.17.54.54,0,0,1,.16.39A.54.54,0,0,1,288.39,41.13Z" transform="translate(-1.37 -1.6)"/><path class="cls-1" d="M218.36,42.4q-.39.44-.67.44t-.25-.24.23-.33a.86.86,0,0,0,.29-.52.63.63,0,0,1-.54-.68.65.65,0,0,1,.21-.49.71.71,0,0,1,.5-.2.65.65,0,0,1,.51.23.89.89,0,0,1,.2.61A1.69,1.69,0,0,1,218.36,42.4Z" transform="translate(-1.37 -1.6)"/><path class="cls-1" d="M255.16,39.84a.45.45,0,0,1,0-.46.44.44,0,0,1,.26-.22.41.41,0,0,1,.49.15L257,41a.48.48,0,0,1,.06.52.55.55,0,0,1-.17.19.46.46,0,0,1-.5,0,.43.43,0,0,1-.18-.16Z" transform="translate(-1.37 -1.6)"/><rect class="cls-1" x="178.53" y="42.85" width="4.46" height="1.05" rx="0.48" ry="0.48"/><path class="cls-1" d="M191.69,51.23a.58.58,0,0,1-.43.17.59.59,0,0,1,0-1.18.58.58,0,0,1,.43.17.58.58,0,0,1,0,.83Z" transform="translate(-1.37 -1.6)"/><path class="cls-7" d="M146.18,22.23a3,3,0,0,1-2.22.82q-3.26,0-3.26-4V17.49a4.87,4.87,0,0,1,.76-2.89A3,3,0,0,1,144,13.46a2.82,2.82,0,0,1,2.15.78.69.69,0,0,1,.22.42q0,.51-.54.53a1.16,1.16,0,0,1-.49-.27,2.18,2.18,0,0,0-1.34-.41q-2.17,0-2.17,3V19a4.09,4.09,0,0,0,.49,2.27A1.82,1.82,0,0,0,144,22a2.41,2.41,0,0,0,1.44-.45l.17-.12.09-.06a.48.48,0,0,1,.24-.08.46.46,0,0,1,.35.15.51.51,0,0,1,.13.35A.62.62,0,0,1,146.18,22.23Z" transform="translate(-1.37 -1.6)"/><path class="cls-7" d="M151.67,22.23a2.91,2.91,0,0,1-4,0,2.79,2.79,0,0,1-.6-1.88V19a2.79,2.79,0,0,1,.6-1.88,2.91,2.91,0,0,1,4,0,2.79,2.79,0,0,1,.6,1.88v1.32A2.79,2.79,0,0,1,151.67,22.23ZM151,15l-1.34-1.21L148.34,15a.45.45,0,0,1-.28.12.48.48,0,0,1-.46-.46.46.46,0,0,1,.17-.35l1.57-1.5a.42.42,0,0,1,.35-.14.47.47,0,0,1,.35.14l1.57,1.52a.46.46,0,0,1,.17.35A.45.45,0,0,1,151,15Zm.13,4q0-1.62-1.47-1.62T148.22,19v1.32q0,1.63,1.45,1.63t1.47-1.63Z" transform="translate(-1.37 -1.6)"/><path class="cls-7" d="M158.92,22.86a.55.55,0,0,1-.4.16.53.53,0,0,1-.39-.16.55.55,0,0,1-.16-.4V18.83a1.66,1.66,0,0,0-.24-1,1.15,1.15,0,0,0-1-.39,1.65,1.65,0,0,0-1.56.81v4.2a.54.54,0,0,1-.17.4.55.55,0,0,1-.4.16.57.57,0,0,1-.57-.57V18.12a.82.82,0,0,0-.4-.81.39.39,0,0,1-.22-.37q0-.49.55-.49a1.09,1.09,0,0,1,.69.27,1.23,1.23,0,0,1,.28.42,2.58,2.58,0,0,1,2-.77q2.11,0,2.11,2.35v3.73A.55.55,0,0,1,158.92,22.86Z" transform="translate(-1.37 -1.6)"/><path class="cls-7" d="M165.65,22.47q0,2.83-2.6,2.83a4.32,4.32,0,0,1-1.75-.31.48.48,0,0,1-.17-.82.4.4,0,0,1,.39-.1l.3.09.31.08a3.76,3.76,0,0,0,.86.1q1.54,0,1.54-1.81v-.36a2.76,2.76,0,0,1-1.59.51q-2.26,0-2.26-2.7v-.85q0-2.75,2.29-2.75a2.45,2.45,0,0,1,1.57.58h0a.55.55,0,0,1,.16-.4.52.52,0,0,1,.39-.17.54.54,0,0,1,.41.16.56.56,0,0,1,.15.4Zm-2.49-5.1q-1.35,0-1.35,1.63V20.1a2,2,0,0,0,.3,1.2,1.22,1.22,0,0,0,1,.39,2,2,0,0,0,1.4-.54V18A1.81,1.81,0,0,0,163.16,17.36Z" transform="translate(-1.37 -1.6)"/><path class="cls-7" d="M174.41,22.79a.49.49,0,0,1-.37.15h-.39a2,2,0,0,1-1.79-.76,3.65,3.65,0,0,1-.45-2V17.41H171a.47.47,0,0,1-.35-.14.46.46,0,0,1-.14-.33.48.48,0,0,1,.49-.49h.37V15.13a.57.57,0,0,1,.57-.57.52.52,0,0,1,.39.17.55.55,0,0,1,.16.4v1.32h1.2a.48.48,0,0,1,.49.49.46.46,0,0,1-.14.33.47.47,0,0,1-.35.14h-1.2v2.74a2.71,2.71,0,0,0,.24,1.38,1.1,1.1,0,0,0,1,.39H174a.5.5,0,0,1,.51.51A.51.51,0,0,1,174.41,22.79Z" transform="translate(-1.37 -1.6)"/><path class="cls-7" d="M178.4,22a7,7,0,0,1-1.3,2.42,2.66,2.66,0,0,1-1.88.84.57.57,0,0,1-.45-.15.54.54,0,0,1-.17-.4.49.49,0,0,1,.53-.54,2.13,2.13,0,0,0,1.81-1.31q-.73-1.84-1.27-3.28t-.87-2.54l0-.09a.55.55,0,0,1,0-.09.46.46,0,0,1,.17-.37.6.6,0,0,1,.4-.14.5.5,0,0,1,.49.39q.35,1.09.76,2.27t.91,2.45l1.59-4.73a.52.52,0,0,1,.51-.37.58.58,0,0,1,.4.15.48.48,0,0,1,.17.38.69.69,0,0,1,0,.22Z" transform="translate(-1.37 -1.6)"/><path class="cls-7" d="M190.53,22.23a3,3,0,0,1-2.22.82q-3.26,0-3.26-4V17.49a4.87,4.87,0,0,1,.76-2.89,3,3,0,0,1,2.57-1.14,2.82,2.82,0,0,1,2.15.78.69.69,0,0,1,.22.42q0,.51-.54.53a1.16,1.16,0,0,1-.49-.27,2.18,2.18,0,0,0-1.34-.41q-2.17,0-2.17,3V19a4.09,4.09,0,0,0,.49,2.27,1.82,1.82,0,0,0,1.61.72,2.41,2.41,0,0,0,1.44-.45l.17-.12.09-.06a.48.48,0,0,1,.24-.08.46.46,0,0,1,.35.15.51.51,0,0,1,.13.35A.62.62,0,0,1,190.53,22.23Z" transform="translate(-1.37 -1.6)"/><path class="cls-7" d="M197.52,18.56a3,3,0,0,1-2.08.68h-2v3.24a.58.58,0,1,1-1.16,0V14.15a.57.57,0,0,1,.17-.4.55.55,0,0,1,.41-.17h2.45a3.09,3.09,0,0,1,2.3.81,2.38,2.38,0,0,1,.66,1.72v.66A2.33,2.33,0,0,1,197.52,18.56Zm-.4-2.44a1.3,1.3,0,0,0-.39-1,2,2,0,0,0-1.49-.48h-1.8v3.51h2a1.84,1.84,0,0,0,1.31-.42,1.33,1.33,0,0,0,.4-1Z" transform="translate(-1.37 -1.6)"/><path class="cls-7" d="M206.17,22.48q-.22.58-.68.58a.74.74,0,0,1-.71-.59q-.84-2.31-1.51-4.37t-1.21-3.89l0-.09a.55.55,0,0,1,0-.09.51.51,0,0,1,.19-.4.62.62,0,0,1,.42-.16.53.53,0,0,1,.53.42q.55,1.88,1.14,3.68t1.23,3.58q1.36-3.79,2.39-7.29a.48.48,0,0,1,.49-.4.59.59,0,0,1,.39.15A.48.48,0,0,1,209,14a.5.5,0,0,1,0,.08l0,.09Q207.81,18,206.17,22.48Z" transform="translate(-1.37 -1.6)"/><path class="cls-7" d="M213.87,23a.91.91,0,0,1-.67-.27.84.84,0,0,1-.26-.39,2.33,2.33,0,0,1-1.8.66,2.44,2.44,0,0,1-1.72-.54,1.77,1.77,0,0,1-.53-1.35V21a1.67,1.67,0,0,1,.57-1.34,2.76,2.76,0,0,1,1.8-.53h1.47v-.31a2,2,0,0,0-.26-1.16,1.27,1.27,0,0,0-1.07-.39,2.7,2.7,0,0,0-1.31.32.57.57,0,0,1-.27.08.44.44,0,0,1-.34-.15.49.49,0,0,1-.13-.34.46.46,0,0,1,.23-.4,3.52,3.52,0,0,1,1.89-.45,2.36,2.36,0,0,1,1.88.66,3,3,0,0,1,.5,1.93v2.39a.85.85,0,0,0,.36.81.43.43,0,0,1,.22.37Q214.42,23,213.87,23Zm-1.14-3h-1.35Q210,20,210,21v.1q0,1,1.32,1a1.21,1.21,0,0,0,1.39-1.35Z" transform="translate(-1.37 -1.6)"/><path class="cls-7" d="M218.88,22.79a.49.49,0,0,1-.37.15h-.39a2,2,0,0,1-1.79-.76,3.65,3.65,0,0,1-.45-2V17.41h-.37a.47.47,0,0,1-.35-.14.46.46,0,0,1-.14-.33.48.48,0,0,1,.49-.49h.37V15.13a.57.57,0,0,1,.57-.57.52.52,0,0,1,.39.17.55.55,0,0,1,.16.4v1.32h1.2a.48.48,0,0,1,.49.49.46.46,0,0,1-.14.33.47.47,0,0,1-.35.14H217v2.74a2.71,2.71,0,0,0,.24,1.38,1.1,1.1,0,0,0,1,.39h.26a.5.5,0,0,1,.51.51A.51.51,0,0,1,218.88,22.79Z" transform="translate(-1.37 -1.6)"/><path class="cls-7" d="M229.08,14.53a.55.55,0,0,1-.4.16h-2.43v7.79a.58.58,0,1,1-1.16,0V14.69h-2.43a.55.55,0,0,1-.55-.55.55.55,0,0,1,.16-.4.52.52,0,0,1,.39-.17h6a.57.57,0,0,1,.57.57A.52.52,0,0,1,229.08,14.53Z" transform="translate(-1.37 -1.6)"/><path class="cls-7" d="M233.59,23a1.06,1.06,0,0,1-.69-.27,1.2,1.2,0,0,1-.31-.48,2.61,2.61,0,0,1-2,.75q-2.1,0-2.09-2.34V16.94a.55.55,0,0,1,.16-.4.54.54,0,0,1,.4-.17.52.52,0,0,1,.39.17.55.55,0,0,1,.16.4v3.64a1.66,1.66,0,0,0,.24,1,1.17,1.17,0,0,0,1,.37,1.59,1.59,0,0,0,1.56-.86V16.94a.57.57,0,0,1,1.13,0v4.41a.82.82,0,0,0,.4.81.39.39,0,0,1,.22.37Q234.14,23,233.59,23Z" transform="translate(-1.37 -1.6)"/><path class="cls-7" d="M244.73,14.53a.55.55,0,0,1-.4.16H241.9v7.79a.58.58,0,1,1-1.16,0V14.69h-2.43a.55.55,0,0,1-.55-.55.55.55,0,0,1,.16-.4.52.52,0,0,1,.39-.17h6a.57.57,0,0,1,.57.57A.52.52,0,0,1,244.73,14.53Z" transform="translate(-1.37 -1.6)"/><path class="cls-7" d="M254,22.52a.54.54,0,0,1-1.08,0V16l-2.38,5.06a.58.58,0,0,1-1.05,0l-2.38-5.05v6.48a.5.5,0,0,1-.16.37.53.53,0,0,1-.38.15.53.53,0,0,1-.53-.53V14a.52.52,0,0,1,.15-.39.54.54,0,0,1,.4-.15.6.6,0,0,1,.57.35l2.87,6,2.88-6a.55.55,0,0,1,.54-.32.54.54,0,0,1,.4.15A.52.52,0,0,1,254,14Z" transform="translate(-1.37 -1.6)"/><path class="cls-7" d="M265.84,23.06a.59.59,0,0,1-.55-.28L261,15.85v6.67a.55.55,0,0,1-.54.54.5.5,0,0,1-.37-.16.53.53,0,0,1-.15-.38V14q0-.54.57-.54a.62.62,0,0,1,.57.32l4.25,6.9V14a.55.55,0,0,1,.54-.54.5.5,0,0,1,.37.16.53.53,0,0,1,.15.38v8.52Q266.4,23.06,265.84,23.06Z" transform="translate(-1.37 -1.6)"/><path class="cls-7" d="M273.14,22.47q0,2.83-2.6,2.83a4.32,4.32,0,0,1-1.75-.31.48.48,0,0,1-.17-.82.4.4,0,0,1,.39-.1l.3.09.31.08a3.76,3.76,0,0,0,.86.1q1.54,0,1.54-1.81v-.36a2.76,2.76,0,0,1-1.59.51q-2.26,0-2.26-2.7v-.85q0-2.75,2.29-2.75A2.45,2.45,0,0,1,272,17h0a.55.55,0,0,1,.16-.4.52.52,0,0,1,.39-.17.54.54,0,0,1,.41.16.56.56,0,0,1,.15.4Zm-2.49-5.1q-1.35,0-1.35,1.63V20.1a2,2,0,0,0,.3,1.2,1.22,1.22,0,0,0,1,.39,2,2,0,0,0,1.4-.54V18A1.81,1.81,0,0,0,270.64,17.36Z" transform="translate(-1.37 -1.6)"/><path class="cls-7" d="M279.32,22.23a2.91,2.91,0,0,1-4,0,2.79,2.79,0,0,1-.6-1.88V19a2.79,2.79,0,0,1,.6-1.88,2.91,2.91,0,0,1,4,0,2.79,2.79,0,0,1,.6,1.88v1.32A2.79,2.79,0,0,1,279.32,22.23Zm-.53-3.2q0-1.62-1.47-1.62T275.87,19v1.32q0,1.63,1.45,1.63t1.47-1.63Z" transform="translate(-1.37 -1.6)"/><path class="cls-7" d="M285.47,22.65a3.42,3.42,0,0,1-1.62.37,2.35,2.35,0,0,1-1.94-.81,3.19,3.19,0,0,1-.6-2v-.89a3.15,3.15,0,0,1,.64-2,2.27,2.27,0,0,1,1.9-.86,3.25,3.25,0,0,1,1.61.37.46.46,0,0,1,.26.41.51.51,0,0,1-.13.34.43.43,0,0,1-.53.1,2.57,2.57,0,0,0-1.12-.26,1.34,1.34,0,0,0-1.11.49,2.08,2.08,0,0,0-.4,1.34v1q0,1.84,1.46,1.84a2.68,2.68,0,0,0,1.17-.26.43.43,0,0,1,.22-.05.39.39,0,0,1,.31.15.52.52,0,0,1,.12.34A.45.45,0,0,1,285.47,22.65Z" transform="translate(-1.37 -1.6)"/><path class="cls-7" d="M296.41,22.44a.5.5,0,0,1,0,.08.48.48,0,0,1-.18.39.63.63,0,0,1-.41.15.53.53,0,0,1-.55-.45q-.09-.36-.22-.82l-.3-1h-3.68q-.18.62-.5,1.85a.52.52,0,0,1-.54.45.6.6,0,0,1-.4-.15.5.5,0,0,1-.18-.4.7.7,0,0,1,0-.15q.49-2,1.17-4.09t1.54-4.18q.24-.63.73-.63t.75.63q.82,2,1.5,4.08t1.21,4.18Zm-2.66-4.9q-.38-1.09-.83-2.22-.87,2.25-1.54,4.38h3.08Q294.12,18.62,293.74,17.54Z" transform="translate(-1.37 -1.6)"/><path class="cls-7" d="M302.54,22.86a.55.55,0,0,1-.4.16.53.53,0,0,1-.39-.16.55.55,0,0,1-.16-.4V18.83a1.66,1.66,0,0,0-.24-1,1.15,1.15,0,0,0-1-.39,1.65,1.65,0,0,0-1.56.81v4.2a.54.54,0,0,1-.17.4.55.55,0,0,1-.4.16.57.57,0,0,1-.57-.57V18.12a.82.82,0,0,0-.4-.81.39.39,0,0,1-.22-.37q0-.49.55-.49a1.09,1.09,0,0,1,.69.27,1.23,1.23,0,0,1,.28.42,2.58,2.58,0,0,1,2-.77q2.11,0,2.11,2.35v3.73A.55.55,0,0,1,302.54,22.86Z" transform="translate(-1.37 -1.6)"/><path class="cls-7" d="M309.37,22.86a.57.57,0,0,1-.8,0,.54.54,0,0,1-.17-.4V18.83a1.77,1.77,0,0,0-.23-1,1.15,1.15,0,0,0-1-.39,1.68,1.68,0,0,0-1.57.81v4.2a.55.55,0,0,1-.57.57.53.53,0,0,1-.39-.16.55.55,0,0,1-.16-.4V14.19a.55.55,0,0,1,.55-.55.55.55,0,0,1,.4.16.53.53,0,0,1,.16.39V17a2.55,2.55,0,0,1,1.8-.62q2.11,0,2.11,2.35v3.73A.54.54,0,0,1,309.37,22.86Z" transform="translate(-1.37 -1.6)"/><path class="cls-7" d="M278,24.65a.58.58,0,0,1-.43.17.59.59,0,0,1,0-1.18.58.58,0,0,1,.43.17.58.58,0,0,1,0,.83Z" transform="translate(-1.37 -1.6)"/><path class="cls-7" d="M234.33,16.81q-.39.44-.67.44t-.25-.24.23-.33a.86.86,0,0,0,.29-.52.63.63,0,0,1-.54-.68.65.65,0,0,1,.21-.49.71.71,0,0,1,.5-.2.65.65,0,0,1,.51.23.89.89,0,0,1,.2.61A1.69,1.69,0,0,1,234.33,16.81Z" transform="translate(-1.37 -1.6)"/><path class="cls-7" d="M212.64,15.53l-1-.93-1,.93a.35.35,0,0,1-.22.09.37.37,0,0,1-.36-.36.36.36,0,0,1,.13-.27l1.21-1.16a.33.33,0,0,1,.27-.11.36.36,0,0,1,.27.11L213.08,15a.36.36,0,0,1,.13.27.34.34,0,0,1-.58.26Z" transform="translate(-1.37 -1.6)"/><path class="cls-7" d="M211.86,24.65a.58.58,0,0,1-.43.17.59.59,0,0,1,0-1.18.58.58,0,0,1,.43.17.58.58,0,0,1,0,.83Z" transform="translate(-1.37 -1.6)"/></svg>